<svg width="310" height="134" viewBox="0 0 310 134" fill="none" xmlns="http://www.w3.org/2000/svg">
<path fill-rule="evenodd" clip-rule="evenodd" d="M68.146 3.12108L70.1096 1.42061L76.7902 9.13471C101.356 13.262 120.738 32.644 124.865 57.2098L132.579 63.8904C134.474 65.5308 134.474 68.4692 132.579 70.1096L124.865 76.7902C120.738 101.356 101.356 120.738 76.7902 124.865L70.1096 132.579C68.4692 134.474 65.5308 134.474 63.8904 132.579L57.2098 124.865C32.644 120.738 13.262 101.356 9.13471 76.7902L1.42061 70.1096L3.38457 67.8418L11.9266 75.2394C15.5096 99.3943 34.6057 118.49 58.7606 122.073L66.1582 130.615C66.6023 131.128 67.3977 131.128 67.8418 130.615L75.2394 122.073C99.3943 118.49 118.49 99.3943 122.073 75.2394L130.615 67.8418C131.128 67.3977 131.128 66.6023 130.615 66.1582L122.073 58.7606C118.49 34.6057 99.3943 15.5096 75.2394 11.9266L67.8418 3.38457C67.3977 2.87181 66.6023 2.87181 66.1582 3.38457L58.7606 11.9266C34.6057 15.5096 15.5096 34.6057 11.9266 58.7606L3.38457 66.1582C2.87181 66.6023 2.87181 67.3977 3.38457 67.8418L1.4206 70.1096C-0.473536 68.4692 -0.473535 65.5308 1.42061 63.8904L9.13471 57.2098C13.262 32.644 32.644 13.262 57.2098 9.13471L63.8904 1.42061L65.7418 3.02392L63.8904 1.4206C65.5308 -0.473535 68.4692 -0.473535 70.1096 1.4206L68.146 3.12108Z" fill="#010080"/>
<path d="M68.2284 10.3453C67.8296 9.88488 67.1153 9.88488 66.7165 10.3453L60.0734 18.0161C38.3822 21.2337 21.2337 38.3822 18.0161 60.0734L10.3453 66.7165C9.88488 67.1153 9.88488 67.8296 10.3453 68.2284L18.0161 74.8715C21.2337 96.5628 38.3822 113.711 60.0734 116.929L66.7165 124.6C67.1153 125.06 67.8296 125.06 68.2284 124.6L74.8715 116.929C96.5628 113.711 113.711 96.5628 116.929 74.8715L124.6 68.2284C125.06 67.8296 125.06 67.1153 124.6 66.7165L116.929 60.0734C113.711 38.3822 96.5628 21.2337 74.8715 18.0161L68.2284 10.3453Z" fill="#010080"/>
<path d="M65.8296 35.0912C65.3506 36.4969 65.2153 37.9442 65.2444 39.4227C65.2757 40.9284 65.588 42.3798 66.0108 43.8147C66.4189 45.1953 66.8229 46.5781 67.229 47.9609C67.2415 47.9234 67.2561 47.888 67.2686 47.8505C67.2811 47.8859 67.2956 47.9234 67.3081 47.9588C67.7142 46.576 68.1182 45.1933 68.5264 43.8126C68.9512 42.3778 69.2615 40.9284 69.2927 39.4207C69.324 37.9442 69.1865 36.4948 68.7076 35.0891C70.5964 37.9359 70.8796 41.0429 70.1674 44.4581C72.3935 41.701 73.7555 38.8147 72.9183 35.2786C72.5997 33.9292 71.9624 32.7401 71.1149 31.6531C70.0945 30.3432 69.0657 29.0437 68.3952 27.5006C67.9079 26.3823 67.6184 25.2141 67.3977 24C67.3456 24.0312 67.304 24.0666 67.2665 24.102C67.229 24.0666 67.1874 24.0312 67.1353 24C66.9146 25.2141 66.6251 26.3823 66.1378 27.5006C65.4652 29.0437 64.4364 30.3432 63.4181 31.6531C62.5705 32.7401 61.9333 33.9292 61.6147 35.2786C60.7796 38.8147 62.1415 41.701 64.3656 44.4581C63.6534 41.0408 63.9366 37.9338 65.8254 35.0891L65.8296 35.0912Z" fill="white"/>
<path d="M64.5239 52.8338C63.3536 50.9659 61.4377 50.2037 59.5177 49.429C59.9071 49.8747 60.2444 50.3078 60.3069 50.9388C60.5089 52.9505 61.4544 53.8084 63.4639 53.823C63.845 53.8251 63.9929 53.9542 64.0804 54.2957C64.2928 55.1246 64.5322 55.9471 64.7592 56.7718C64.8113 56.7655 64.8613 56.7593 64.9133 56.753C64.9133 55.9138 64.8925 55.0725 64.9217 54.2333C64.9383 53.7126 64.7946 53.267 64.5218 52.8338H64.5239Z" fill="white"/>
<path d="M32.252 59.429C32.1124 59.531 31.8188 59.6289 32.0999 59.8309C32.3311 59.9975 32.3644 60.5951 32.833 60.2786C33.3994 59.8954 33.9742 59.5372 34.7218 59.1749C33.7763 58.9729 32.9787 58.8979 32.252 59.429Z" fill="white"/>
<path d="M66.1732 61.3303C66.2003 61.3136 66.2045 61.2636 66.2357 61.1928C65.6089 60.7493 64.9966 60.2703 64.249 59.9288C64.197 60.3015 64.3761 60.5327 64.4843 60.7743C64.9612 61.8259 65.2153 61.905 66.1732 61.3303Z" fill="white"/>
<path d="M34.8696 80.3765C35.1841 80.516 35.2653 81.1325 35.6984 80.8971C36.2773 80.5827 36.8604 80.2807 37.4623 79.9704C36.5397 79.7164 35.6297 79.5019 34.8696 80.3744V80.3765Z" fill="white"/>
<path d="M106.958 69.783C104.126 69.808 101.294 69.7934 98.4618 69.7934C98.2557 69.7934 98.0495 69.7934 97.8184 69.6831C98.0683 69.5873 98.3161 69.4811 98.5701 69.3978C100.321 68.823 101.592 67.6818 102.456 66.0742C102.548 65.9055 102.625 65.8326 102.823 65.7909C105.067 65.3182 107.339 62.6797 107.477 60.3869C107.564 58.923 106.923 57.7485 105.946 56.7322C105.151 55.9034 104.218 55.2308 103.316 54.5269C103.083 54.3436 102.941 54.1583 102.925 53.8376C102.814 51.5739 101.75 49.8039 100.015 48.4169C98.2765 47.0258 96.5064 45.6785 95.2423 43.7959C93.8242 41.6864 92.5393 39.5227 92.2478 36.7385C91.5314 38.621 91.1753 40.3495 91.6793 42.1633C88.6264 39.935 87.1353 35.5056 88.1391 31.474C86.521 32.8463 85.5714 34.4956 85.3694 36.5385C85.0674 39.5789 86.1524 42.0467 88.541 43.9355C90.3402 45.3599 92.3602 46.4594 94.2449 47.763C95.7921 48.8334 97.2686 49.9975 98.7617 51.1408C99.4739 51.6864 99.5052 52.6193 100.126 53.3482C98.4868 53.3961 96.9875 53.5544 95.6568 52.5548C94.5364 51.7135 93.2203 51.7051 91.8667 51.8613C92.3686 52.13 92.8683 52.4069 93.3744 52.6672C93.6888 52.8276 93.8367 53.0567 93.8887 53.419C94.0783 54.7351 94.8529 55.4369 96.1753 55.5431C96.369 55.5577 96.5647 55.5639 96.7584 55.5681C97.7705 55.5827 97.7788 55.5806 97.7455 54.556C97.7351 54.2395 97.7975 54.1 98.1599 54.0812C98.793 54.05 99.2615 54.1541 99.578 54.808C100.003 55.6847 100.819 56.2262 101.546 56.8426C102.55 57.6943 103.633 58.4565 104.478 59.4852C104.734 59.7955 104.786 60.0537 104.545 60.3974C104.02 61.1366 103.52 61.8946 103.01 62.6443C102.789 62.9713 102.618 63.0671 102.2 62.7943C101.319 62.2195 100.588 61.3553 99.526 61.1241C98.5618 60.9159 97.8683 60.3515 97.1645 59.7414C96.1691 58.8792 95.1507 58.0421 94.1324 57.2049C93.9012 57.0133 93.6472 56.8426 93.3848 56.6926C92.6809 56.2949 92.027 56.349 91.6064 56.8238C91.2128 57.2632 91.1857 58.0587 91.573 58.6398C92.1166 59.4582 92.8663 60.0891 93.5722 60.7555C94.7988 61.9113 96.0378 63.0567 97.2561 64.2187C97.5331 64.4831 97.6976 64.4977 97.9683 64.1895C98.4639 63.6252 99.0199 63.1129 99.6905 62.4361C99.501 63.317 99.3552 63.9979 99.2074 64.6851C99.4239 64.833 99.6072 64.5602 99.8925 64.6539C99.3094 65.4786 98.6264 66.1491 97.7767 66.6572C97.4872 66.8301 97.3311 66.6177 97.152 66.4865C95.7567 65.4682 94.3615 64.4477 92.9745 63.4169C92.0812 62.7526 91.0649 62.3257 90.0633 61.8717C89.7884 61.7468 89.5135 61.6177 89.2386 61.4906C86.521 60.2308 86.9083 57.2757 88.4139 55.9117C88.5722 55.768 88.7263 55.616 88.8992 55.4536C84.6759 55.7514 78.1786 63.5606 78.0037 68.6585C79.7009 64.7497 82.4623 62.4257 86.7542 61.98C81.117 64.4706 78.0349 68.8855 76.5147 74.5956C75.6255 77.9359 75.284 81.349 74.9779 84.7705C74.9466 85.1141 74.9154 85.4598 74.88 85.8034C74.8675 85.9242 74.8425 86.0429 74.8009 86.3074C74.5218 84.8684 74.4385 83.5523 74.3969 82.2403C74.2573 77.7443 74.0845 73.2399 74.6488 68.7647C75.2902 63.6897 76.6001 58.8001 79.2157 54.3415C80.4381 52.2591 81.9812 50.4807 84.1845 49.3645C85.8296 48.5315 87.5726 48.2358 89.4427 48.3086C89.1511 48.1545 88.8596 48.0046 88.5701 47.8484C86.2378 46.5969 84.3302 44.9475 83.4369 42.3486C82.7871 40.4577 82.9579 38.5606 83.3661 36.6552C83.8679 34.3082 83.466 32.1133 82.1978 30.0392C82.3477 32.257 81.6397 34.1687 80.2507 35.9055C79.451 34.0271 78.2182 32.4965 77.0249 30.9409C75.9379 29.5206 75.007 28.0233 74.6468 26.2408C74.5572 25.7993 74.5156 25.3474 74.4364 24.7809C73.8867 25.4765 73.5722 26.197 73.4202 26.9904C73.1182 28.5523 73.3994 30.0413 74.0095 31.4865C74.5635 32.8005 75.2715 34.0458 75.7484 35.3932C77.2144 39.529 76.4543 43.344 74.0991 46.9321C73.8992 47.2362 73.6826 47.5277 73.3702 47.9692C75.6588 47.2737 77.3269 46.0263 78.541 44.1541C78.693 44.2853 78.5951 44.4165 78.5639 44.5394C78.5264 44.6852 78.4806 44.8309 78.4264 44.9704C77.9475 46.197 77.4831 47.4298 76.9791 48.646C76.396 50.0517 76.2357 51.6093 76.623 53.0816C76.7271 53.4752 76.648 53.721 76.3544 53.9875C75.4756 54.7851 74.5281 55.4411 73.3307 55.6452C73.0079 55.7014 72.8454 55.8638 72.7788 56.1783C72.481 57.5902 71.9625 58.9604 71.9812 60.4307C71.9833 60.641 71.8438 60.7826 71.7396 60.9471C71.0441 62.0404 70.361 63.14 69.8571 64.4061C69.2573 63.469 68.3494 63.09 67.2998 63.0671C67.2894 63.0671 67.279 63.0671 67.2686 63.0671C67.2582 63.0671 67.2478 63.0671 67.2374 63.0671C66.1878 63.09 65.2798 63.469 64.6801 64.4061C64.1761 63.1379 63.491 62.0383 62.7975 60.9471C62.6934 60.7847 62.5539 60.6431 62.556 60.4307C62.5747 58.9604 62.0562 57.5902 61.7584 56.1783C61.6917 55.8638 61.5293 55.6993 61.2065 55.6452C60.0112 55.4411 59.0616 54.7851 58.1828 53.9875C57.8892 53.7189 57.81 53.4732 57.9142 53.0816C58.3015 51.6114 58.1411 50.0517 57.5581 48.646C57.0541 47.4298 56.5897 46.197 56.1107 44.9704C56.0566 44.8309 56.0108 44.6852 55.9733 44.5394C55.9421 44.4165 55.8442 44.2874 55.9962 44.1541C57.2103 46.0263 58.8783 47.2737 61.167 47.9692C60.8567 47.5277 60.638 47.2362 60.4381 46.9321C58.0828 43.344 57.3207 39.529 58.7888 35.3932C59.2657 34.0458 59.9737 32.8005 60.5277 31.4865C61.1357 30.0413 61.4169 28.5523 61.117 26.9904C60.9629 26.197 60.6505 25.4786 60.1007 24.7809C60.0195 25.3453 59.9779 25.7972 59.8904 26.2408C59.5301 28.0233 58.6014 29.5206 57.5122 30.9409C56.319 32.4965 55.0862 34.0271 54.2865 35.9055C52.8975 34.1687 52.1895 32.257 52.3394 30.0392C51.0712 32.1133 50.6672 34.3082 51.1711 36.6552C51.5793 38.5606 51.7501 40.4557 51.1003 42.3486C50.207 44.9475 48.3015 46.5948 45.9671 47.8484C45.6776 48.0046 45.386 48.1545 45.0945 48.3086C46.9646 48.2378 48.7097 48.5315 50.3527 49.3645C52.556 50.4786 54.0991 52.257 55.3215 54.3415C57.9371 58.8001 59.249 63.6897 59.8883 68.7647C60.4527 73.2399 60.2798 77.7443 60.1403 82.2403C60.0987 83.5523 60.0154 84.8705 59.7363 86.3074C59.6947 86.045 59.6697 85.9242 59.6572 85.8034C59.6218 85.4598 59.5905 85.1162 59.5593 84.7705C59.2532 81.347 58.9117 77.9359 58.0224 74.5956C56.5022 68.8855 53.4202 64.4706 47.783 61.98C52.0749 62.4257 54.8384 64.7497 56.5335 68.6585C56.3586 63.5606 49.8613 55.7514 45.638 55.4536C45.8109 55.616 45.9629 55.7659 46.1232 55.9117C47.6289 57.2757 48.0162 60.2308 45.2986 61.4906C45.0237 61.6177 44.7509 61.7468 44.4739 61.8717C43.4723 62.3278 42.456 62.7526 41.5626 63.4169C40.1757 64.4477 38.7805 65.4682 37.3852 66.4865C37.2061 66.6177 37.0499 66.8301 36.7605 66.6572C35.9108 66.1491 35.2278 65.4786 34.6447 64.6539C34.93 64.5581 35.1112 64.8309 35.3298 64.6851C35.182 63.9979 35.0362 63.317 34.8467 62.4361C35.5172 63.1108 36.0733 63.6252 36.5689 64.1895C36.8396 64.4977 37.0041 64.4831 37.2811 64.2187C38.5014 63.0546 39.7384 61.9113 40.965 60.7555C41.673 60.0891 42.4206 59.4582 42.9641 58.6398C43.3515 58.0567 43.3223 57.2632 42.9308 56.8238C42.5081 56.3511 41.8563 56.2949 41.1524 56.6926C40.89 56.8405 40.638 57.0133 40.4048 57.2049C39.3885 58.0421 38.3681 58.8792 37.3727 59.7414C36.6688 60.3515 35.9754 60.9159 35.0112 61.1241C33.9491 61.3553 33.2182 62.2195 32.3373 62.7943C31.9187 63.0671 31.748 62.9713 31.5272 62.6443C31.017 61.8926 30.5172 61.1366 29.9925 60.3974C29.7488 60.0537 29.803 59.7955 30.0591 59.4852C30.9067 58.4565 31.9875 57.6922 32.9912 56.8426C33.7159 56.2283 34.5343 55.6847 34.9591 54.808C35.2757 54.1562 35.7442 54.05 36.3773 54.0812C36.7396 54.1 36.8021 54.2395 36.7917 54.556C36.7584 55.5806 36.7667 55.5827 37.7788 55.5681C37.9725 55.566 38.1682 55.5598 38.3619 55.5431C39.6843 55.4369 40.4568 54.7351 40.6484 53.419C40.7005 53.0587 40.8504 52.8297 41.1628 52.6672C41.6688 52.4069 42.1686 52.13 42.6705 51.8613C41.319 51.7051 40.0008 51.7135 38.8804 52.5548C37.5497 53.5544 36.0504 53.3961 34.4115 53.3482C35.0341 52.6193 35.0633 51.6864 35.7755 51.1408C37.2686 49.9975 38.7451 48.8355 40.2923 47.763C42.1749 46.4594 44.1949 45.3599 45.9962 43.9355C48.3848 42.0467 49.4698 39.5789 49.1678 36.5385C48.9658 34.4956 48.0162 32.8463 46.3981 31.474C47.4019 35.5056 45.9108 39.935 42.8579 42.1633C43.3619 40.3495 43.0079 38.621 42.2894 36.7385C41.9979 39.5227 40.7109 41.6864 39.2948 43.7959C38.0308 45.6785 36.2607 47.0258 34.5218 48.4169C32.7892 49.8039 31.723 51.5739 31.6126 53.8376C31.596 54.1583 31.4544 54.3457 31.2211 54.5269C30.3194 55.2308 29.3865 55.9034 28.591 56.7322C27.6143 57.7505 26.9729 58.923 27.0603 60.3869C27.1978 62.6777 29.4698 65.3182 31.7147 65.7909C31.9125 65.8326 31.9895 65.9055 32.0812 66.0742C32.9454 67.6797 34.2157 68.823 35.9671 69.3978C36.2211 69.4811 36.4668 69.5873 36.7188 69.6831C36.4898 69.7934 36.2836 69.7934 36.0753 69.7934C33.2432 69.7934 30.411 69.808 27.5789 69.783C27.0687 69.7789 26.9625 69.9246 27.0104 70.4098C27.1395 71.7218 27.2228 73.0379 27.4394 74.3415C28.5514 80.9825 31.2961 86.9009 35.3694 92.2299C39.1262 97.1425 43.7055 101.095 49.1824 103.985C53.6763 106.355 58.4431 107.909 63.4681 108.658C63.8013 108.708 63.9929 108.821 64.1574 109.129C64.9966 110.714 65.9212 112.249 66.9604 113.717C67.0833 113.89 67.179 113.979 67.2707 114C67.3623 113.979 67.4581 113.888 67.5789 113.717C68.618 112.249 69.5406 110.716 70.3819 109.129C70.5443 108.821 70.7359 108.708 71.0712 108.658C76.0962 107.909 80.8629 106.355 85.3569 103.985C90.8338 101.097 95.4131 97.1445 99.1699 92.2299C103.243 86.903 105.988 80.9846 107.1 74.3415C107.319 73.04 107.402 71.7239 107.529 70.4098C107.577 69.9246 107.469 69.7789 106.96 69.783H106.958ZM62.2144 62.7568C63.0245 64.3769 63.8429 65.9909 64.6426 67.6173C64.8529 68.0421 65.0216 68.2649 65.6068 68.0983C66.1545 67.9421 66.7126 67.8713 67.2707 67.8672C67.8288 67.8713 68.3869 67.9421 68.9346 68.0983C69.5197 68.2649 69.6884 68.0421 69.8987 67.6173C70.6984 65.9929 71.5168 64.3769 72.3269 62.7568C72.3644 62.7693 72.354 62.7651 72.3915 62.7776C72.1062 64.2541 71.723 65.7201 71.5647 67.2112C71.4481 68.2941 71.0337 69.125 70.2944 69.8622C70.0362 70.1204 69.8071 70.2474 69.349 70.1704C68.6618 70.0558 67.9683 69.9892 67.2728 69.9809C66.5793 69.9913 65.8858 70.0558 65.1965 70.1704C64.7363 70.2474 64.5093 70.1204 64.2511 69.8622C63.5118 69.1229 63.0953 68.2941 62.9808 67.2112C62.8204 65.7201 62.4394 64.2541 62.1541 62.7776C62.1915 62.7651 62.1811 62.7693 62.2186 62.7568H62.2144ZM30.6234 74C30.4339 72.888 30.4548 72.8838 31.6043 72.8901C32.3602 72.8942 33.1141 72.9046 33.87 72.8942C34.2136 72.8901 34.4094 72.9317 34.2532 73.3586C34.0928 73.8022 33.9637 74.2624 33.9866 74.7455C33.9929 74.8788 33.9554 74.9954 33.8534 75.0933C33.0599 75.8472 32.2686 76.6052 31.4252 77.4111C31.0358 76.2637 30.8192 75.1329 30.6255 73.9979L30.6234 74ZM51.0274 101.22C45.9858 98.3794 41.5439 94.8288 38.0245 90.1933C37.0978 88.9729 36.2128 87.7214 35.409 86.4136C35.1924 86.0596 35.2986 85.9659 35.6276 85.8263C36.9229 85.2849 37.583 85.3724 38.516 86.2657C39.7322 86.6739 40.6901 86.1283 41.596 85.4244C42.6872 84.5769 43.9117 83.9334 45.0362 83.1379C45.234 82.9984 45.4381 82.8193 45.5277 83.2545C45.9067 85.085 46.2982 86.9113 46.6855 88.7397C46.9875 89.9913 47.2894 91.2428 47.5914 92.4965C48.4514 95.6785 49.7946 98.6418 51.6834 101.366C51.3565 101.522 51.2003 101.32 51.0274 101.222V101.22ZM60.8213 104.677C58.5847 103.825 56.6501 102.534 55.1278 100.664C52.7017 98.2128 51.4002 95.1912 50.7255 91.8717C50.1903 89.2353 50.4589 86.5719 50.5631 83.9167C50.6276 82.2716 50.6526 80.6327 50.1945 79.025C49.4593 76.4469 47.1561 75.0787 44.7259 75.8701C45.2132 76.2345 45.79 76.3969 46.219 76.8592C43.4098 77.5173 41.4939 79.5061 39.1824 81.1533C40.1403 81.2678 40.9046 81.0658 41.8167 80.8971C41.0795 81.7364 40.3236 82.3528 39.576 82.9775C39.4135 83.1129 39.3011 82.9734 39.172 82.9109C37.4227 82.0425 35.7401 81.9967 34.1282 83.3732C33.6222 82.3736 33.137 81.3886 32.6247 80.4182C32.4685 80.1245 32.683 80.0329 32.8267 79.8913C33.8138 78.9188 34.9175 78.0816 35.9858 77.2028C36.596 76.701 37.1145 76.145 37.379 75.3744C37.5331 74.9246 38.5222 74.581 38.8596 74.8476C39.0887 75.0288 38.9929 75.3474 38.9471 75.5785C38.8242 76.1887 39.0741 76.3407 39.628 76.2637C39.9904 76.2137 40.3631 76.2366 40.7276 76.1928C41.7875 76.0658 42.6289 75.2807 42.7371 74.2166C42.7871 73.7314 42.9975 73.4794 43.3994 73.2899C43.8388 73.0816 44.2678 72.8442 44.8633 72.536C43.4681 72.4236 42.2478 72.3757 41.2232 73.1379C39.9696 74.0708 38.5722 73.9854 37.0978 73.9459C38.0245 72.2008 39.1282 70.6785 40.6838 69.5206C44.1324 66.955 48.8429 67.3653 52.0499 70.4973C54.1928 72.5881 55.1486 75.2349 55.6443 78.0983C56.1691 81.1262 56.3356 84.1937 56.6751 87.2424C56.8813 89.0916 57.1707 90.9221 57.6184 92.7297C57.633 92.7734 57.6455 92.8172 57.6559 92.863C58.3452 95.4078 59.2865 97.8588 60.4881 100.204C61.4023 101.986 62.4602 103.69 63.8159 105.385C62.6955 105.237 61.7417 105.027 60.8275 104.679L60.8213 104.677ZM67.7913 102.115C67.5393 102.48 67.3977 102.678 67.2686 102.713C67.1395 102.678 66.9979 102.48 66.7459 102.115C64.7571 99.2395 63.7576 96.0013 63.3077 92.5735C62.8413 89.025 62.985 85.4536 63.0058 81.8884C63.0183 79.6414 63.0808 77.3923 63.1224 75.1454C63.1266 74.91 63.1516 74.6747 63.2411 74.4352C63.2411 74.4436 63.2432 74.4498 63.2453 74.4582C63.4556 75.9055 63.945 77.2966 64.6842 78.5565C64.8779 78.8855 65.0695 79.2166 65.2611 79.5477C65.7567 80.4119 66.421 81.1491 67.0041 81.9467C67.102 82.0821 67.1874 82.1341 67.2686 82.13C67.3498 82.1341 67.4352 82.0821 67.5331 81.9467C68.1182 81.1491 68.7805 80.4119 69.2761 79.5477C69.4656 79.2166 69.6593 78.8855 69.8529 78.5565C70.5922 77.2966 71.0816 75.9055 71.2919 74.4582C71.2919 74.4498 71.294 74.4436 71.2961 74.4352C71.3877 74.6747 71.4106 74.91 71.4148 75.1454C71.4564 77.3923 71.5189 79.6414 71.5314 81.8884C71.5522 85.4536 71.6959 89.025 71.2294 92.5735C70.7796 95.9992 69.78 99.2395 67.7913 102.115ZM99.1303 86.4115C98.3265 87.7193 97.4414 88.9709 96.5147 90.1912C92.9975 94.8268 88.5535 98.3753 83.5118 101.218C83.3369 101.316 83.1828 101.518 82.8558 101.362C84.7446 98.6377 86.0857 95.6722 86.9479 92.4923C87.2498 91.2408 87.5518 89.9892 87.8538 88.7355C88.2411 86.9071 88.6326 85.0808 89.0116 83.2503C89.1012 82.8151 89.3052 82.9942 89.5031 83.1337C90.6276 83.9313 91.8521 84.5727 92.9433 85.4203C93.8513 86.1262 94.8092 86.6697 96.0233 86.2616C96.9562 85.3682 97.6164 85.2807 98.9117 85.8222C99.2428 85.9596 99.349 86.0554 99.1303 86.4094V86.4115ZM101.921 80.4182C101.409 81.3886 100.923 82.3736 100.417 83.3732C98.8055 81.9967 97.1228 82.0425 95.3736 82.9109C95.2444 82.9754 95.1299 83.1129 94.9696 82.9775C94.2199 82.3528 93.4639 81.7343 92.7288 80.8971C93.6388 81.0679 94.4052 81.2678 95.3631 81.1533C93.0516 79.5061 91.1357 77.5173 88.3265 76.8592C88.7576 76.3949 89.3323 76.2345 89.8196 75.8701C87.3894 75.0766 85.0883 76.4469 84.3511 79.025C83.8908 80.6327 83.9179 82.2716 83.9825 83.9167C84.0866 86.5719 84.3552 89.2353 83.82 91.8717C83.1453 95.1912 81.8438 98.2128 79.4177 100.664C77.8933 102.532 75.9608 103.825 73.7242 104.677C72.81 105.025 71.8563 105.237 70.7359 105.383C72.0916 103.688 73.1495 101.986 74.0637 100.202C75.2653 97.8567 76.2065 95.4057 76.8958 92.8609C76.9042 92.8172 76.9187 92.7734 76.9333 92.7276C77.381 90.9221 77.6705 89.0896 77.8767 87.2403C78.2161 84.1916 78.3827 81.1241 78.9075 78.0962C79.4031 75.2328 80.359 72.586 82.5018 70.4952C85.7109 67.3653 90.4194 66.953 93.8679 69.5186C95.4235 70.6764 96.5251 72.1987 97.4539 73.9438C95.9795 73.9834 94.5822 74.0687 93.3286 73.1358C92.304 72.3736 91.0837 72.4215 89.6884 72.534C90.284 72.8422 90.7109 73.0796 91.1524 73.2878C91.5543 73.4773 91.7646 73.7293 91.8146 74.2145C91.9229 75.2807 92.7621 76.0658 93.8242 76.1908C94.1886 76.2345 94.5614 76.2116 94.9237 76.2616C95.4777 76.3386 95.7255 76.1866 95.6047 75.5764C95.5589 75.3453 95.4631 75.0267 95.6922 74.8455C96.0295 74.5789 97.0187 74.9225 97.1728 75.3724C97.4373 76.145 97.9579 76.6989 98.566 77.2008C99.6322 78.0796 100.736 78.9167 101.725 79.8892C101.869 80.0308 102.083 80.1204 101.927 80.4161L101.921 80.4182ZM103.918 74C103.724 75.135 103.508 76.2657 103.118 77.4132C102.277 76.6073 101.486 75.8492 100.69 75.0954C100.586 74.9975 100.551 74.8809 100.557 74.7476C100.58 74.2645 100.451 73.8043 100.29 73.3607C100.134 72.9338 100.33 72.8921 100.673 72.8963C101.427 72.9067 102.183 72.8963 102.939 72.8921C104.089 72.8859 104.109 72.888 103.92 74.0021L103.918 74Z" fill="white"/>
<path d="M71.0754 53.823C73.0849 53.8084 74.0325 52.9505 74.2324 50.9388C74.2948 50.3078 74.6322 49.8747 75.0216 49.429C73.1016 50.2037 71.1878 50.9659 70.0154 52.8338C69.7426 53.267 69.5989 53.7126 69.6155 54.2333C69.6426 55.0725 69.6239 55.9138 69.6239 56.753C69.6759 56.7593 69.7259 56.7655 69.778 56.7718C70.007 55.9471 70.2444 55.1246 70.4569 54.2957C70.5443 53.9542 70.6922 53.8251 71.0733 53.823H71.0754Z" fill="white"/>
<path d="M102.439 59.8309C102.72 59.6289 102.429 59.5311 102.287 59.429C101.561 58.898 100.763 58.975 99.8175 59.175C100.565 59.5373 101.14 59.8976 101.706 60.2787C102.175 60.5952 102.208 59.9975 102.439 59.8309Z" fill="white"/>
<path d="M68.3661 61.3282C69.324 61.903 69.5781 61.8238 70.0549 60.7722C70.1653 60.5306 70.3423 60.2974 70.2903 59.9267C69.5406 60.2703 68.9304 60.7472 68.3036 61.1908C68.3348 61.2616 68.3411 61.3136 68.3661 61.3282Z" fill="white"/>
<path d="M97.077 79.9725C97.6789 80.2807 98.2619 80.5848 98.8409 80.8992C99.274 81.1345 99.3552 80.516 99.6697 80.3786C98.9075 79.506 97.9975 79.7205 97.077 79.9746V79.9725Z" fill="white"/>
<path d="M153.391 62.7578H147.789C147.852 62.1953 148 61.6719 148.234 61.1875C148.484 60.7031 148.789 60.2812 149.148 59.9219C149.523 59.5625 149.945 59.2812 150.414 59.0781C150.883 58.8594 151.375 58.75 151.891 58.75H153.391V40.4688H158.969V58.75H171.602V40.4688H177.227V76H171.602V62.7578H158.969V76H153.391V62.7578ZM188.148 76C188.211 75.4531 188.359 74.9375 188.594 74.4531C188.844 73.9688 189.148 73.5469 189.508 73.1875C189.883 72.8125 190.305 72.5234 190.773 72.3203C191.242 72.1016 191.734 71.9922 192.25 71.9922H203.5V61.5156L196.375 65.8281C196.062 66.0312 195.672 66.1953 195.203 66.3203C194.75 66.4453 194.336 66.5 193.961 66.4844H191.312C190.688 66.4844 190.094 66.3281 189.531 66.0156C188.969 65.7031 188.477 65.2812 188.055 64.75C187.633 64.2188 187.297 63.5938 187.047 62.875C186.797 62.1562 186.672 61.3906 186.672 60.5781V44.4766H181.703C181.766 43.9297 181.914 43.4141 182.148 42.9297C182.398 42.4453 182.711 42.0234 183.086 41.6641C183.477 41.2891 183.922 41 184.422 40.7969C184.922 40.5781 185.461 40.4688 186.039 40.4688H192.297V62.4531H194.477L203.5 56.8984V40.4688H209.078V70.1172C209.078 70.9141 208.961 71.6719 208.727 72.3906C208.492 73.0938 208.172 73.7188 207.766 74.2656C207.375 74.7969 206.906 75.2188 206.359 75.5312C205.812 75.8438 205.234 76 204.625 76H188.148ZM219.25 52.9844C219.25 52.1719 219.367 51.4141 219.602 50.7109C219.852 49.9922 220.18 49.3672 220.586 48.8359C221.008 48.2891 221.492 47.8594 222.039 47.5469C222.586 47.2344 223.172 47.0781 223.797 47.0781H224.852V71.9922H235.703V44.4297H214.703C214.75 43.8828 214.891 43.3672 215.125 42.8828C215.375 42.3984 215.68 41.9766 216.039 41.6172C216.414 41.2578 216.836 40.9766 217.305 40.7734C217.773 40.5703 218.273 40.4688 218.805 40.4688H236.805C237.414 40.4688 237.992 40.625 238.539 40.9375C239.086 41.2344 239.555 41.6562 239.945 42.2031C240.352 42.7344 240.672 43.3672 240.906 44.1016C241.141 44.8203 241.258 45.5938 241.258 46.4219V70.0938C241.258 70.9062 241.141 71.6719 240.906 72.3906C240.672 73.1094 240.352 73.7344 239.945 74.2656C239.555 74.7969 239.086 75.2188 238.539 75.5312C238.008 75.8438 237.438 76 236.828 76H219.273L219.25 52.9844ZM251.617 62.7812H246.391C246.438 62.2344 246.578 61.7188 246.812 61.2344C247.062 60.75 247.367 60.3281 247.727 59.9688C248.102 59.5938 248.523 59.3047 248.992 59.1016C249.461 58.8828 249.961 58.7734 250.492 58.7734H251.617V40.4688H267.508C268.133 40.4688 268.734 40.625 269.312 40.9375C269.891 41.2344 270.398 41.6562 270.836 42.2031C271.289 42.7344 271.648 43.3672 271.914 44.1016C272.18 44.8203 272.312 45.5938 272.312 46.4219V55.1641C272.312 56.3047 272.055 57.3516 271.539 58.3047C271.023 59.2578 270.273 60.0234 269.289 60.6016C269.977 60.8516 270.57 61.2031 271.07 61.6562C271.57 62.1094 271.984 62.6094 272.312 63.1562C272.641 63.7031 272.883 64.2734 273.039 64.8672C273.195 65.4609 273.273 66.0234 273.273 66.5547L273.25 71.9688H279.414C279.352 72.5312 279.195 73.0547 278.945 73.5391C278.711 74.0234 278.406 74.4531 278.031 74.8281C277.672 75.1875 277.258 75.4766 276.789 75.6953C276.32 75.8984 275.828 76 275.312 76H272.078C271.469 76 270.891 75.8438 270.344 75.5312C269.812 75.2188 269.344 74.7969 268.938 74.2656C268.531 73.7344 268.211 73.1094 267.977 72.3906C267.742 71.6719 267.625 70.9062 267.625 70.0938V62.7812H257.172L257.148 76H251.617V62.7812ZM266.758 58.7734V44.4766H257.172V58.7734H266.758ZM283.914 67.0703H278.5C278.562 66.5234 278.711 66.0078 278.945 65.5234C279.195 65.0391 279.5 64.6172 279.859 64.2578C280.234 63.8828 280.656 63.5938 281.125 63.3906C281.594 63.1719 282.086 63.0625 282.602 63.0625H284.617L287.734 44.8984C287.844 44.2578 288.047 43.6641 288.344 43.1172C288.656 42.5703 289.016 42.1016 289.422 41.7109C289.844 41.3203 290.305 41.0156 290.805 40.7969C291.305 40.5781 291.805 40.4688 292.305 40.4688H298C298.484 40.4688 298.977 40.5781 299.477 40.7969C299.977 41.0156 300.438 41.3281 300.859 41.7344C301.281 42.125 301.641 42.5938 301.938 43.1406C302.25 43.6719 302.461 44.2656 302.57 44.9219L307.914 76H302.312L300.859 67.0703H289.352L287.922 76H282.391L283.914 67.0703ZM300.227 63.0625L297.227 44.4297H292.938C292.438 47.4609 291.945 50.5391 291.461 53.6641C290.977 56.7734 290.484 59.9062 289.984 63.0625H300.227Z" fill="#010080"/>
<path d="M152.826 85.186H155.738V92.564H159.854V95H152.826V85.186ZM169.713 85.004C170.488 85.004 171.197 85.13 171.841 85.382C172.494 85.634 173.059 85.9887 173.535 86.446C174.02 86.9033 174.394 87.44 174.655 88.056C174.926 88.672 175.061 89.344 175.061 90.072C175.061 90.8 174.926 91.4813 174.655 92.116C174.394 92.7413 174.02 93.2827 173.535 93.74C173.059 94.1973 172.494 94.5567 171.841 94.818C171.197 95.07 170.488 95.196 169.713 95.196C168.938 95.196 168.224 95.07 167.571 94.818C166.927 94.5567 166.362 94.1973 165.877 93.74C165.401 93.2827 165.028 92.7413 164.757 92.116C164.496 91.4907 164.365 90.8093 164.365 90.072C164.365 89.3347 164.496 88.658 164.757 88.042C165.028 87.426 165.401 86.894 165.877 86.446C166.362 85.9887 166.927 85.634 167.571 85.382C168.224 85.13 168.938 85.004 169.713 85.004ZM169.755 87.426C169.428 87.426 169.116 87.4913 168.817 87.622C168.528 87.7527 168.271 87.9393 168.047 88.182C167.832 88.4247 167.66 88.7093 167.529 89.036C167.408 89.3533 167.347 89.7033 167.347 90.086C167.347 90.4687 167.412 90.8233 167.543 91.15C167.674 91.4767 167.846 91.7613 168.061 92.004C168.285 92.2467 168.542 92.438 168.831 92.578C169.12 92.7087 169.428 92.774 169.755 92.774C170.072 92.774 170.371 92.7087 170.651 92.578C170.931 92.438 171.178 92.2467 171.393 92.004C171.608 91.7613 171.776 91.4767 171.897 91.15C172.018 90.8233 172.079 90.4687 172.079 90.086C172.079 89.7033 172.018 89.3533 171.897 89.036C171.776 88.7093 171.608 88.4247 171.393 88.182C171.178 87.9393 170.931 87.7527 170.651 87.622C170.371 87.4913 170.072 87.426 169.755 87.426ZM179.149 85.186H182.061L184.203 89.19L186.289 85.186H189.201L184.371 94.342H184.007L179.149 85.186ZM182.747 90.632H185.659V95H182.747V90.632ZM196.418 85.186H199.414L203.46 95H200.352L197.832 88.098L195.228 95H192.232L196.418 85.186ZM194.906 91.304H200.576V93.432H194.906V91.304ZM208.236 85.186H211.148V92.564H215.264V95H208.236V85.186ZM219.593 85.186H228.217V87.51H225.361V95H222.435V87.51H219.593V85.186ZM232.248 85.186H235.16L237.302 89.19L239.388 85.186H242.3L237.47 94.342H237.106L232.248 85.186ZM235.846 90.632H238.758V95H235.846V90.632Z" fill="#010080"/>
</svg>
