<svg width="18" height="19" viewBox="0 0 18 19" fill="none" xmlns="http://www.w3.org/2000/svg">
<mask id="mask0_9_371" style="mask-type:alpha" maskUnits="userSpaceOnUse" x="0" y="0" width="18" height="19">
<rect y="0.5" width="18" height="18" fill="#D9D9D9"/>
</mask>
<g mask="url(#mask0_9_371)">
<path d="M3.75 14.75H4.8L11.2688 8.28125L10.2188 7.23125L3.75 13.7V14.75ZM14.475 7.19375L11.2875 4.04375L12.3375 2.99375C12.625 2.70625 12.9781 2.5625 13.3969 2.5625C13.8156 2.5625 14.1687 2.70625 14.4562 2.99375L15.5063 4.04375C15.7938 4.33125 15.9437 4.67812 15.9562 5.08437C15.9688 5.49062 15.8313 5.8375 15.5438 6.125L14.475 7.19375ZM13.3875 8.3L5.4375 16.25H2.25V13.0625L10.2 5.1125L13.3875 8.3Z" fill="white"/>
</g>
</svg>
