<svg width="24" height="25" viewBox="0 0 24 25" fill="none" xmlns="http://www.w3.org/2000/svg">
<mask id="mask0_2_18" style="mask-type:alpha" maskUnits="userSpaceOnUse" x="0" y="0" width="24" height="25">
<rect y="0.505859" width="24" height="24" fill="#D9D9D9"/>
</mask>
<g mask="url(#mask0_2_18)">
<path d="M16 11.5059C16.2833 11.5059 16.5208 11.41 16.7125 11.2184C16.9042 11.0267 17 10.7892 17 10.5059C17 10.2225 16.9042 9.98503 16.7125 9.79336C16.5208 9.60169 16.2833 9.50586 16 9.50586C15.7167 9.50586 15.4792 9.60169 15.2875 9.79336C15.0958 9.98503 15 10.2225 15 10.5059C15 10.7892 15.0958 11.0267 15.2875 11.2184C15.4792 11.41 15.7167 11.5059 16 11.5059ZM8 9.50586H13V7.50586H8V9.50586ZM4.5 21.5059C3.93333 19.6059 3.375 17.71 2.825 15.8184C2.275 13.9267 2 11.9892 2 10.0059C2 8.47253 2.53333 7.17253 3.6 6.10586C4.66667 5.03919 5.96667 4.50586 7.5 4.50586H12.5C12.9833 3.87253 13.5708 3.38086 14.2625 3.03086C14.9542 2.68086 15.7 2.50586 16.5 2.50586C16.9167 2.50586 17.2708 2.65169 17.5625 2.94336C17.8542 3.23503 18 3.58919 18 4.00586C18 4.10586 17.9875 4.20586 17.9625 4.30586C17.9375 4.40586 17.9083 4.49753 17.875 4.58086C17.8083 4.76419 17.7458 4.95169 17.6875 5.14336C17.6292 5.33503 17.5833 5.53086 17.55 5.73086L19.825 8.00586H22V14.9809L19.175 15.9059L17.5 21.5059H12V19.5059H10V21.5059H4.5ZM6 19.5059H8V17.5059H14V19.5059H16L17.55 14.3559L20 13.5309V10.0059H19L15.5 6.50586C15.5 6.17253 15.5208 5.85169 15.5625 5.54336C15.6042 5.23503 15.6667 4.92253 15.75 4.60586C15.2667 4.73919 14.8417 4.96836 14.475 5.29336C14.1083 5.61836 13.8417 6.02253 13.675 6.50586H7.5C6.53333 6.50586 5.70833 6.84753 5.025 7.53086C4.34167 8.21419 4 9.03919 4 10.0059C4 11.6392 4.225 13.235 4.675 14.7934C5.125 16.3517 5.56667 17.9225 6 19.5059Z" fill="#001E62"/>
</g>
</svg>
