<svg width="25" height="25" viewBox="0 0 25 25" fill="none" xmlns="http://www.w3.org/2000/svg">
<mask id="mask0_2_7" style="mask-type:alpha" maskUnits="userSpaceOnUse" x="0" y="0" width="25" height="25">
<rect x="0.450317" y="0.505859" width="24" height="24" fill="#D9D9D9"/>
</mask>
<g mask="url(#mask0_2_7)">
<path d="M15.4503 16.5059H19.4503V12.5059H17.9503V15.0059H15.4503V16.5059ZM12.4503 15.5059C13.2837 15.5059 13.992 15.2142 14.5753 14.6309C15.1587 14.0475 15.4503 13.3392 15.4503 12.5059C15.4503 11.6725 15.1587 10.9642 14.5753 10.3809C13.992 9.79753 13.2837 9.50586 12.4503 9.50586C11.617 9.50586 10.9087 9.79753 10.3253 10.3809C9.74198 10.9642 9.45032 11.6725 9.45032 12.5059C9.45032 13.3392 9.74198 14.0475 10.3253 14.6309C10.9087 15.2142 11.617 15.5059 12.4503 15.5059ZM5.45032 12.5059H6.95032V10.0059H9.45032V8.50586H5.45032V12.5059ZM2.45032 19.5059V5.50586H22.4503V19.5059H2.45032ZM4.45032 17.5059H20.4503V7.50586H4.45032V17.5059Z" fill="#001E62"/>
</g>
</svg>
