<svg width="24" height="24" viewBox="0 0 24 24" fill="none" xmlns="http://www.w3.org/2000/svg">
<mask id="mask0_102_22" style="mask-type:alpha" maskUnits="userSpaceOnUse" x="0" y="0" width="24" height="24">
<rect width="24" height="24" fill="#D9D9D9"/>
</mask>
<g mask="url(#mask0_102_22)">
<path d="M4 19C3.45 19 2.97917 18.8042 2.5875 18.4125C2.19583 18.0208 2 17.55 2 17V7C2 6.45 2.19583 5.97917 2.5875 5.5875C2.97917 5.19583 3.45 5 4 5H20C20.55 5 21.0208 5.19583 21.4125 5.5875C21.8042 5.97917 22 6.45 22 7V17C22 17.55 21.8042 18.0208 21.4125 18.4125C21.0208 18.8042 20.55 19 20 19H4ZM4 17H20V7H4V17ZM15 16H19V12H17.5V14.5H15V16ZM12 15C12.8333 15 13.5417 14.7083 14.125 14.125C14.7083 13.5417 15 12.8333 15 12C15 11.1667 14.7083 10.4583 14.125 9.875C13.5417 9.29167 12.8333 9 12 9C11.1667 9 10.4583 9.29167 9.875 9.875C9.29167 10.4583 9 11.1667 9 12C9 12.8333 9.29167 13.5417 9.875 14.125C10.4583 14.7083 11.1667 15 12 15ZM5 12H6.5V9.5H9V8H5V12Z" fill="#6B7280"/>
</g>
</svg>
