<svg width="18" height="19" viewBox="0 0 18 19" fill="none" xmlns="http://www.w3.org/2000/svg">
<mask id="mask0_9_328" style="mask-type:alpha" maskUnits="userSpaceOnUse" x="0" y="0" width="18" height="19">
<rect y="0.5" width="18" height="18" fill="#D9D9D9"/>
</mask>
<g mask="url(#mask0_9_328)">
<path d="M8.25 14.75H9.75V11.6187L10.95 12.8188L12 11.75L9 8.75L6 11.75L7.06875 12.8L8.25 11.6187V14.75ZM4.5 17C4.0875 17 3.73438 16.8531 3.44063 16.5594C3.14688 16.2656 3 15.9125 3 15.5V3.5C3 3.0875 3.14688 2.73438 3.44063 2.44063C3.73438 2.14688 4.0875 2 4.5 2H10.5L15 6.5V15.5C15 15.9125 14.8531 16.2656 14.5594 16.5594C14.2656 16.8531 13.9125 17 13.5 17H4.5ZM9.75 7.25V3.5H4.5V15.5H13.5V7.25H9.75Z" fill="white"/>
</g>
</svg>
