<svg width="268" height="87" viewBox="0 0 268 87" fill="none" xmlns="http://www.w3.org/2000/svg">
<path d="M1.524 52.448C1.488 52.448 1.452 52.484 1.416 52.484C0.984 52.484 0.408 51.872 0.408 51.548C0.408 51.476 0.444 51.404 0.516 51.368C0.552 51.368 3.864 50.396 8.364 49.46C11.496 43.88 15.348 37.436 18.048 34.376C15.996 35.276 13.8 36.32 13.764 36.32C13.728 36.32 13.692 36.356 13.62 36.356C13.224 36.356 12.612 35.744 12.612 35.42C12.612 35.348 12.648 35.312 12.72 35.276C12.72 35.276 19.704 32 20.712 32C21.108 32 21.828 32.468 21.828 32.9C21.828 33.008 21.792 33.116 21.72 33.188C21.54 33.368 21.216 33.62 20.676 33.98C18.336 35.528 14.088 42.404 10.524 48.704C14.988 42.62 20.424 35.816 23.484 34.16C23.952 33.908 24.384 33.8 24.78 33.8C25.968 33.8 26.832 34.736 27.12 36.068C27.192 36.464 27.228 36.86 27.228 37.328C27.228 40.028 25.932 44.096 24.564 47.948C26.076 48.092 26.904 48.776 26.904 49.064C26.904 49.172 26.832 49.208 26.688 49.208C26.652 49.208 26.616 49.208 26.544 49.208C25.824 49.1 25.032 48.992 24.204 48.956C23.7 50.432 21.324 56.372 21.324 57.956C21.324 58.028 21.324 58.064 21.324 58.1C21.324 58.244 21.144 58.316 20.964 58.316C20.604 58.316 20.1 58.028 20.1 57.056C20.1 56.732 20.172 56.336 20.28 55.832C20.712 54.176 21.828 51.224 22.692 48.92C22.656 48.92 22.62 48.92 22.548 48.92C18.984 48.92 14.916 49.46 11.316 50.144C7.428 55.508 4.296 60.188 4.296 60.224C4.224 60.296 4.188 60.296 4.08 60.296C3.72 60.296 3.036 59.756 3.036 59.432C3.036 59.36 3.072 59.324 3.072 59.288C3.144 59.144 5.016 55.472 7.536 50.936C4.008 51.728 1.56 52.448 1.524 52.448ZM12.396 48.704C15.492 48.2 18.804 47.84 21.792 47.84C22.224 47.84 22.656 47.84 23.052 47.84C23.592 46.364 26.004 39.704 26.004 36.428C26.004 35.636 25.86 35.024 25.536 34.736C25.5 34.7 25.428 34.664 25.32 34.664C23.376 34.664 13.224 47.588 12.396 48.704ZM33.9437 48.632C34.0157 48.56 34.0517 48.56 34.1237 48.56C34.4837 48.56 35.0597 49.136 35.0597 49.496C35.0597 49.568 35.0597 49.604 35.0237 49.64C33.0077 51.116 27.5357 58.352 26.3117 58.424C26.2757 58.424 26.2397 58.424 26.2037 58.424C25.1597 58.424 24.6917 57.704 24.6917 56.516C24.6917 53.24 28.7957 43.268 31.0277 37.904C31.6757 36.32 32.1437 35.132 32.3237 34.628C32.3597 34.556 32.4317 34.52 32.5397 34.52C32.8997 34.52 33.5837 35.024 33.5837 35.384C33.5837 35.924 32.8997 37.22 32.2517 38.768C30.0557 44.096 25.9877 53.924 25.9517 57.128C28.0757 55.688 31.4237 51.044 33.9437 48.632ZM32.8004 51.44C32.6204 51.512 32.4764 51.872 32.4764 52.232C32.4764 52.556 32.5844 52.88 32.8724 52.988C33.0884 53.06 33.3044 53.06 33.5564 53.06C36.0044 53.06 40.0724 50.036 41.6204 48.668C41.6564 48.632 41.6924 48.632 41.7644 48.632C42.1244 48.632 42.7004 49.244 42.7004 49.64C42.7004 49.712 42.6644 49.748 42.6284 49.784C42.5924 49.82 37.6604 54.14 34.3124 54.14C34.1324 54.14 33.9884 54.14 33.8444 54.14C32.0444 53.888 31.3604 52.916 31.3604 51.728C31.3604 49.388 33.9524 46.256 35.8604 46.148C35.8964 46.148 35.9324 46.148 35.9324 46.148C36.8324 46.148 37.7324 46.94 37.7324 47.84C37.7324 48.056 37.6604 48.272 37.5524 48.488C36.6524 50 32.8004 51.44 32.8004 51.44ZM33.7724 49.496C34.7804 48.992 36.2204 48.092 36.4364 47.3C35.6084 47.516 34.5284 48.524 33.7724 49.496ZM51.7699 48.236C51.8059 48.2 51.8419 48.2 51.9139 48.2C52.3099 48.2 52.9579 48.776 52.9579 49.1C52.9579 49.172 52.9219 49.244 52.8499 49.28C51.0499 50.396 47.4859 52.952 45.3619 52.952C45.2539 52.952 45.1099 52.952 45.0019 52.916C44.4259 52.844 43.8859 52.52 43.4539 52.088C41.5459 54.284 39.7099 56.624 39.3859 57.992C39.3859 58.1 39.3139 58.136 39.2059 58.136C38.8459 58.136 38.1619 57.632 38.1619 57.236C38.1619 55.832 40.7179 52.916 42.6619 50.72C42.5539 50.396 42.4819 50.072 42.4459 49.712C42.0139 49.712 41.4019 49.136 41.4019 48.812C41.4019 48.776 41.4379 48.74 41.4379 48.704L42.5179 46.724C42.5539 46.652 42.6259 46.652 42.6979 46.652C43.0579 46.652 43.7419 47.156 43.7419 47.552C43.7419 48.164 43.6699 48.776 43.6699 49.28C43.6699 49.388 43.6699 49.496 43.6699 49.604C45.4699 47.624 47.0539 46.112 47.0539 46.112C47.0899 46.076 47.1619 46.04 47.2339 46.04C47.6299 46.04 48.2779 46.616 48.2779 46.94C48.2779 47.012 48.2779 47.048 48.2059 47.084C48.2059 47.084 46.1179 49.1 43.9939 51.512C44.1019 51.764 44.1379 51.8 44.3539 51.836C44.4259 51.836 44.5339 51.872 44.6059 51.872C46.4419 51.872 50.1139 49.244 51.7699 48.236ZM56.5368 47.768C56.3928 48.092 55.7808 47.696 55.6008 47.516C54.2688 47.912 52.1448 49.388 52.1448 50.936C52.1448 51.116 52.1808 51.26 52.2168 51.44C52.2528 51.44 52.2528 51.44 52.2888 51.44C53.5128 51.44 56.7888 47.804 56.8248 47.804C56.9328 47.66 57.2928 47.768 57.6168 48.02C57.9048 48.236 58.0488 48.488 58.0128 48.668C58.0488 49.028 57.7968 49.64 57.7968 50.108C57.7968 50.288 57.8328 50.468 57.9408 50.576C58.0128 50.648 58.1208 50.72 58.2648 50.72C58.5888 50.72 59.1288 50.504 60.2448 49.82C61.5048 49.028 63.1248 47.768 64.9968 46.184C65.0328 46.148 65.1048 46.148 65.1768 46.148C65.5368 46.148 66.2208 46.724 66.2208 47.048C66.2208 47.084 66.2208 47.12 66.1848 47.156C66.1488 47.228 65.2128 48.992 64.3488 50.72C65.3928 49.712 67.8768 46.832 69.7128 46.832C70.0728 46.832 70.3968 46.94 70.6848 47.192C71.2968 47.66 71.4768 48.38 71.4768 49.136C71.4768 49.82 71.3328 50.576 71.3328 51.224C71.3328 51.44 71.3688 51.62 71.3688 51.8C72.6648 51.584 75.3288 49.424 76.3008 48.632C76.3368 48.596 76.4088 48.596 76.4808 48.596C76.8408 48.596 77.4528 49.136 77.4528 49.46C77.4528 49.532 77.4528 49.568 77.4168 49.604C76.3728 50.468 73.6368 52.88 71.9448 52.88C71.7288 52.88 71.5488 52.844 71.3688 52.772C70.3248 52.304 70.0728 51.26 70.0728 50.216C70.0728 49.316 70.2528 48.416 70.2528 48.056C70.2528 47.984 70.2528 47.912 70.1808 47.912C68.3448 47.912 63.4848 54.068 62.6568 54.248C62.6568 54.248 62.6208 54.248 62.5848 54.248C62.2248 54.248 61.4688 53.924 61.4688 53.492C61.4688 53.456 61.4688 53.42 61.4688 53.348C61.4328 52.988 63.0888 49.892 63.3408 49.46C62.5848 50 61.9368 50.468 61.3248 50.828C60.3528 51.44 59.4888 51.8 58.8048 51.8C58.5168 51.8 58.2288 51.728 58.0128 51.62C57.3288 51.26 56.8968 50.756 56.7528 50C55.6368 51.044 53.9448 52.34 52.6848 52.34C52.4328 52.34 52.1808 52.304 51.9648 52.16C51.4968 51.872 51.1368 51.44 50.9568 50.864C50.9208 50.72 50.9208 50.54 50.9208 50.36C50.9208 48.524 53.3328 46.4 55.0968 46.4C55.6008 46.4 56.0328 46.544 56.3568 46.94C56.5728 47.192 56.6448 47.48 56.5368 47.768ZM82.9051 47.228C82.8691 47.192 82.8331 47.156 82.7611 47.156C82.0771 48.38 79.7011 53.276 77.6131 53.276C77.3251 53.276 77.0731 53.168 76.8211 52.988C76.1371 52.484 75.8131 51.584 75.8131 50.612C75.8131 50.036 75.9211 49.424 76.1371 48.848C76.8571 46.94 78.3331 45.464 80.2051 45.464C80.7091 45.464 81.2491 45.572 81.8251 45.788C84.5611 40.856 87.2251 34.88 87.2251 34.844C87.2611 34.772 87.3331 34.736 87.4411 34.736C87.8011 34.736 88.6291 35.276 88.4851 35.636C86.6131 40.28 80.8891 55.544 80.8891 59.432C80.8891 59.612 80.9251 59.756 80.9251 59.9C80.9251 60.044 80.8531 60.08 80.7451 60.08C80.3851 60.08 79.7731 59.684 79.6651 59.252C79.6651 59.108 79.6291 58.892 79.6291 58.712C79.6291 56.552 81.1411 52.088 82.9051 47.228ZM81.3571 46.58C81.2491 46.58 81.1771 46.58 81.0691 46.58C78.8011 46.58 76.9291 49.82 76.9291 51.584C76.9291 51.836 76.9651 52.052 77.0371 52.232C78.1531 51.908 80.0611 48.884 81.3571 46.58ZM94.4884 48.704C94.8124 48.38 95.7844 49.424 95.4604 49.712C93.9484 51.188 88.9084 57.524 87.1804 56.948C86.8204 56.804 86.4604 56.516 86.2444 56.192C85.3804 54.896 88.0444 50.828 88.8004 49.316C87.6484 49.676 86.4244 49.82 85.4524 49.172C83.7244 47.984 84.8044 45.392 86.1364 44.996C86.9284 44.78 87.8644 45.572 88.0084 46.328C88.1164 46.76 88.0084 47.444 87.5764 48.308C88.0084 48.2 88.8724 47.804 89.2324 47.804C89.8084 47.84 90.1684 48.164 90.3844 48.704C90.7444 49.676 87.5404 54.212 87.2524 55.868C88.9804 55.04 92.8324 50.36 94.4884 48.704ZM85.7764 48.488C86.3884 47.516 86.6764 46.796 86.7484 46.292C86.5324 46.472 86.2804 46.832 86.0644 47.3C86.0284 47.336 85.6684 48.38 85.7764 48.488ZM93.3774 51.44C93.1974 51.512 93.0534 51.872 93.0534 52.232C93.0534 52.556 93.1614 52.88 93.4494 52.988C93.6654 53.06 93.8814 53.06 94.1334 53.06C96.5814 53.06 100.649 50.036 102.197 48.668C102.233 48.632 102.269 48.632 102.341 48.632C102.701 48.632 103.277 49.244 103.277 49.64C103.277 49.712 103.241 49.748 103.205 49.784C103.169 49.82 98.2374 54.14 94.8894 54.14C94.7094 54.14 94.5654 54.14 94.4214 54.14C92.6214 53.888 91.9374 52.916 91.9374 51.728C91.9374 49.388 94.5294 46.256 96.4374 46.148C96.4734 46.148 96.5094 46.148 96.5094 46.148C97.4094 46.148 98.3094 46.94 98.3094 47.84C98.3094 48.056 98.2374 48.272 98.1294 48.488C97.2294 50 93.3774 51.44 93.3774 51.44ZM94.3494 49.496C95.3574 48.992 96.7974 48.092 97.0134 47.3C96.1854 47.516 95.1054 48.524 94.3494 49.496ZM121.748 47.804C121.676 47.84 121.64 47.84 121.568 47.84C121.172 47.84 120.56 47.264 120.56 46.94C120.56 46.868 120.596 46.832 120.632 46.796C125.24 44.204 128.444 40.604 129.704 37.688C129.92 37.22 130.316 36.068 130.316 35.132C130.316 34.664 130.208 34.268 129.92 34.088C129.668 33.872 129.272 33.8 128.696 33.8C128.408 33.8 128.048 33.836 127.616 33.872C121.208 34.88 111.596 49.1 111.596 55.796C111.596 57.524 112.244 58.784 113.792 59.144C114.116 59.216 114.44 59.252 114.8 59.252C120.884 59.252 130.676 48.74 130.712 48.704C130.748 48.668 130.82 48.632 130.856 48.632C131.216 48.632 131.756 49.28 131.756 49.676C131.756 49.748 131.756 49.784 131.72 49.82C131.684 49.856 121.928 60.332 115.52 60.332C115.088 60.332 114.692 60.296 114.332 60.188C112.28 59.72 110.804 58.028 110.48 55.976C110.408 55.616 110.408 55.256 110.372 54.896C110.408 47.408 120.56 33.728 126.716 32.792C127.076 32.756 127.436 32.72 127.76 32.72C128.768 32.72 129.56 32.972 130.208 33.404C131.18 34.124 131.576 35.024 131.576 36.032C131.576 36.86 131.324 37.724 130.928 38.588C129.668 41.54 126.392 45.176 121.748 47.804ZM135.782 47.768C135.71 47.948 135.386 47.912 135.026 47.66C134.954 47.624 134.918 47.552 134.846 47.516C133.37 47.948 131.39 49.46 131.39 50.936C131.39 51.08 131.426 51.224 131.462 51.332C133.082 51.116 136.07 47.804 136.07 47.804C136.178 47.696 136.25 47.66 136.358 47.66C136.79 47.66 137.294 48.344 137.294 48.596C137.294 48.632 137.294 48.668 137.294 48.668C137.258 48.812 137.222 49.496 137.222 50.072C137.222 50.468 137.258 50.828 137.294 50.864C137.438 50.9 137.546 50.936 137.69 50.936C139.454 50.936 143.378 47.264 144.278 46.364C144.422 46.184 144.602 46.112 144.782 46.112C145.214 46.112 145.574 46.508 145.574 46.94C145.574 47.048 145.538 47.192 145.466 47.3C145.178 47.912 144.278 49.676 143.594 51.224C144.53 50.036 148.742 45.176 150.074 45.176C150.11 45.176 150.146 45.176 150.182 45.212C151.046 45.464 151.298 46.112 151.298 46.868C151.298 47.66 151.01 48.56 150.794 49.208C151.406 48.704 152.234 48.092 152.918 48.092C152.954 48.092 152.99 48.092 153.026 48.092C153.818 48.2 154.466 48.956 154.574 49.748C154.61 49.892 154.61 50.036 154.61 50.18C154.61 50.792 154.43 51.404 154.43 51.908C155.906 51.836 158.462 49.532 159.722 48.632C159.758 48.596 159.83 48.596 159.866 48.596C160.262 48.596 160.91 49.136 160.91 49.496C160.91 49.532 160.91 49.604 160.838 49.64C159.578 50.54 156.734 53.024 155.078 53.024C154.97 53.024 154.898 52.988 154.79 52.988C154.25 52.88 153.746 52.52 153.422 52.088C153.242 51.8 153.17 51.476 153.17 51.152C153.17 50.54 153.386 49.892 153.35 49.28C152.018 49.82 149.786 52.196 149.57 52.448C149.534 52.52 149.462 52.52 149.354 52.52C148.994 52.52 148.31 51.98 148.31 51.656C148.31 51.62 148.346 51.584 148.346 51.548C148.346 51.548 149.75 48.344 150.002 46.544C148.814 47.588 143.306 54.104 142.154 54.104C142.118 54.104 142.118 54.104 142.118 54.104C142.082 54.032 141.398 53.6 141.398 53.24C141.398 52.736 141.938 51.332 142.586 49.892C141.398 50.828 139.742 51.98 138.374 51.98C138.05 51.98 137.762 51.908 137.474 51.8C136.718 51.44 136.214 50.828 136.034 50C134.99 50.972 133.298 52.448 132.11 52.448C132.074 52.448 132.038 52.448 131.966 52.448C131.21 52.34 130.454 51.692 130.238 50.864C130.166 50.684 130.166 50.468 130.166 50.288C130.166 48.488 132.362 46.868 133.874 46.436C134.018 46.4 134.162 46.364 134.306 46.364C135.062 46.364 135.854 46.832 135.854 47.444C135.854 47.552 135.818 47.66 135.782 47.768ZM164.786 47.768C164.678 48.056 164.066 47.732 163.85 47.516C162.374 47.948 160.394 49.46 160.394 50.936C160.394 51.08 160.43 51.224 160.466 51.332C162.014 51.188 165.074 47.804 165.074 47.804C165.146 47.696 165.254 47.66 165.362 47.66C165.794 47.66 166.334 48.344 166.334 48.596C166.334 48.632 166.298 48.668 166.298 48.668C166.226 49.172 166.19 49.604 166.19 50C166.19 50.396 166.226 50.72 166.298 50.972C166.334 51.116 166.478 51.188 166.694 51.188C167.918 51.188 171.446 48.956 171.95 48.632C171.986 48.596 172.058 48.596 172.094 48.596C172.49 48.596 173.066 49.172 173.066 49.496C173.066 49.568 173.03 49.604 172.994 49.64C171.446 50.612 169.178 52.232 167.45 52.232C167.27 52.232 167.09 52.232 166.91 52.196C165.83 51.908 165.146 51.188 164.966 50.036C163.85 51.116 162.194 52.448 161.114 52.448C161.042 52.448 161.006 52.448 160.934 52.412C160.178 52.34 159.458 51.692 159.242 50.864C159.17 50.684 159.17 50.468 159.17 50.288C159.17 48.488 161.366 46.868 162.878 46.436C163.058 46.4 163.238 46.364 163.418 46.364C163.886 46.364 164.282 46.544 164.606 46.94C164.822 47.192 164.894 47.48 164.786 47.768ZM180.658 48.704C180.982 48.38 181.954 49.424 181.63 49.712C180.118 51.188 175.078 57.524 173.35 56.948C172.99 56.804 172.63 56.516 172.414 56.192C171.55 54.896 174.214 50.828 174.97 49.316C173.818 49.676 172.594 49.82 171.622 49.172C169.894 47.984 170.974 45.392 172.306 44.996C173.098 44.78 174.034 45.572 174.178 46.328C174.286 46.76 174.178 47.444 173.746 48.308C174.178 48.2 175.042 47.804 175.402 47.804C175.978 47.84 176.338 48.164 176.554 48.704C176.914 49.676 173.71 54.212 173.422 55.868C175.15 55.04 179.002 50.36 180.658 48.704ZM171.946 48.488C172.558 47.516 172.846 46.796 172.918 46.292C172.702 46.472 172.45 46.832 172.234 47.3C172.198 47.336 171.838 48.38 171.946 48.488ZM185.739 47.768C185.631 48.056 185.019 47.732 184.803 47.516C183.327 47.948 181.347 49.46 181.347 50.936C181.347 51.08 181.383 51.224 181.419 51.332C182.967 51.188 186.027 47.804 186.027 47.804C186.099 47.696 186.207 47.66 186.315 47.66C186.747 47.66 187.287 48.344 187.287 48.596C187.287 48.632 187.251 48.668 187.251 48.668C187.179 49.172 187.143 49.604 187.143 50C187.143 50.396 187.179 50.72 187.251 50.972C187.287 51.116 187.431 51.188 187.647 51.188C188.871 51.188 192.399 48.956 192.903 48.632C192.939 48.596 193.011 48.596 193.047 48.596C193.443 48.596 194.019 49.172 194.019 49.496C194.019 49.568 193.983 49.604 193.947 49.64C192.399 50.612 190.131 52.232 188.403 52.232C188.223 52.232 188.043 52.232 187.863 52.196C186.783 51.908 186.099 51.188 185.919 50.036C184.803 51.116 183.147 52.448 182.067 52.448C181.995 52.448 181.959 52.448 181.887 52.412C181.131 52.34 180.411 51.692 180.195 50.864C180.123 50.684 180.123 50.468 180.123 50.288C180.123 48.488 182.319 46.868 183.831 46.436C184.011 46.4 184.191 46.364 184.371 46.364C184.839 46.364 185.235 46.544 185.559 46.94C185.775 47.192 185.847 47.48 185.739 47.768Z" fill="#003D7E"/>
<path opacity="0.8" d="M92.4883 13.4524C92.8698 13.6037 93.1925 13.8457 93.4567 14.1784C93.7312 14.5134 93.9189 14.8945 94.0197 15.3217C94.1309 15.7512 94.1373 16.1845 94.0391 16.6216C93.9151 17.1731 93.6624 17.6411 93.2808 18.0254C92.9016 18.3994 92.4121 18.6556 91.8125 18.7942C91.2256 18.9246 90.5679 18.908 89.8394 18.7443L85.7806 17.832L88.2261 6.95148L92.1288 7.82863C92.8677 7.99471 93.4692 8.26111 93.9335 8.62783C94.4 8.98414 94.7166 9.39968 94.8832 9.87444C95.0498 10.3492 95.0747 10.8468 94.9577 11.3671C94.8127 12.0123 94.5153 12.5085 94.0656 12.8557C93.6286 13.1948 93.1028 13.3937 92.4883 13.4524ZM88.5906 11.9695L90.979 12.5064C91.6451 12.6561 92.1953 12.6157 92.6297 12.3854C93.0642 12.1551 93.3434 11.7641 93.4673 11.2125C93.5913 10.6609 93.5062 10.1881 93.2122 9.79404C92.9181 9.39997 92.4276 9.12574 91.7408 8.97136L89.3836 8.44156L88.5906 11.9695ZM89.9777 17.5454C90.6853 17.7045 91.2743 17.6619 91.7447 17.4178C92.215 17.1737 92.5168 16.755 92.6501 16.1618C92.7858 15.5582 92.6841 15.0379 92.345 14.6009C92.0082 14.1535 91.4912 13.8514 90.7939 13.6947L88.3275 13.1403L87.4644 16.9805L89.9777 17.5454ZM95.7919 15.556C95.9884 14.6818 96.3373 13.9567 96.8385 13.3805C97.342 12.794 97.9417 12.3876 98.6376 12.1614C99.3439 11.9375 100.077 11.9109 100.837 12.0817C101.586 12.2501 102.2 12.5576 102.679 13.0042C103.158 13.4508 103.478 13.949 103.639 14.499L103.99 12.9379L105.426 13.2607L103.503 21.8153L102.067 21.4925L102.425 19.9002C102.031 20.3366 101.516 20.6582 100.88 20.8649C100.256 21.0635 99.574 21.0798 98.8351 20.9137C98.0754 20.743 97.4306 20.4013 96.9008 19.8886C96.371 19.376 96.0052 18.7416 95.8034 17.9857C95.6016 17.2297 95.5978 16.4198 95.7919 15.556ZM103.032 17.1996C103.177 16.5544 103.173 15.9631 103.02 15.4259C102.868 14.8887 102.596 14.445 102.204 14.0946C101.826 13.7362 101.371 13.4974 100.84 13.3781C100.31 13.2588 99.7977 13.2749 99.3044 13.4264C98.8112 13.5779 98.3807 13.8638 98.0129 14.2841C97.6451 14.7043 97.3887 15.2371 97.2437 15.8823C97.0964 16.5379 97.0978 17.1396 97.248 17.6872C97.4006 18.2244 97.6662 18.6722 98.0448 19.0306C98.4258 19.3786 98.8816 19.6123 99.4124 19.7316C99.9432 19.8509 100.455 19.8347 100.948 19.6832C101.454 19.5236 101.891 19.2337 102.259 18.8134C102.629 18.3828 102.887 17.8448 103.032 17.1996ZM112.029 14.581C113.07 14.8149 113.842 15.3217 114.344 16.1016C114.849 16.871 114.968 17.849 114.702 19.0354L113.568 24.0776L112.163 23.7618L113.251 18.9225C113.443 18.0692 113.376 17.3708 113.05 16.8274C112.726 16.2735 112.195 15.9136 111.456 15.7475C110.706 15.5791 110.055 15.6788 109.503 16.0465C108.96 16.4166 108.588 17.0491 108.387 17.9441L107.324 22.6741L105.904 22.3549L107.826 13.8003L109.247 14.1196L108.973 15.3372C109.352 14.9632 109.808 14.7104 110.341 14.5786C110.884 14.4492 111.447 14.45 112.029 14.581ZM116.323 20.1869C116.522 19.3023 116.872 18.572 117.373 17.9959C117.877 17.4093 118.482 17.0041 119.188 16.7802C119.904 16.5587 120.669 16.5391 121.48 16.7216C122.532 16.9578 123.338 17.4069 123.9 18.0689C124.472 18.7332 124.766 19.5427 124.781 20.4972L123.251 20.1533C123.222 19.6002 123.028 19.1248 122.67 18.7271C122.321 18.3318 121.835 18.0639 121.21 17.9236C120.399 17.7411 119.68 17.8747 119.054 18.3245C118.43 18.7638 118.004 19.4933 117.775 20.5132C117.543 21.5435 117.614 22.3958 117.987 23.0701C118.361 23.7443 118.953 24.1727 119.765 24.3551C120.389 24.4955 120.942 24.4667 121.424 24.2689C121.906 24.071 122.286 23.7191 122.563 23.213L124.093 23.5569C123.668 24.3796 123.052 24.9791 122.246 25.3555C121.442 25.7215 120.525 25.7887 119.495 25.5571C118.683 25.3747 118 25.03 117.448 24.5231C116.905 24.0185 116.532 23.3934 116.327 22.6478C116.123 21.9022 116.122 21.0819 116.323 20.1869ZM129.07 27.7094C128.269 27.5293 127.582 27.1834 127.008 26.6718C126.444 26.1625 126.05 25.5328 125.825 24.7825C125.613 24.0242 125.606 23.2027 125.805 22.3181C126.002 21.4439 126.362 20.7159 126.886 20.1341C127.424 19.5442 128.06 19.146 128.795 18.9395C129.532 18.7226 130.307 18.7054 131.119 18.8878C131.931 19.0703 132.623 19.4173 133.197 19.9289C133.773 20.4301 134.174 21.0559 134.399 21.8061C134.634 22.5587 134.652 23.3773 134.453 24.2619C134.255 25.1465 133.881 25.8826 133.334 26.4702C132.799 27.0497 132.158 27.4467 131.41 27.6612C130.662 27.8758 129.882 27.8918 129.07 27.7094ZM129.351 26.4605C129.861 26.5752 130.367 26.5631 130.868 26.4243C131.369 26.2855 131.809 26.0072 132.187 25.5893C132.576 25.1737 132.847 24.6225 133.002 23.9356C133.156 23.2487 133.152 22.6355 132.989 22.096C132.826 21.5565 132.551 21.1231 132.166 20.7959C131.783 20.4583 131.336 20.2322 130.826 20.1176C130.306 20.0006 129.8 20.0127 129.309 20.1538C128.831 20.2869 128.408 20.5635 128.04 20.9838C127.672 21.404 127.411 21.9576 127.257 22.6444C127.1 23.3417 127.093 23.9578 127.235 24.4926C127.388 25.0298 127.65 25.4661 128.023 25.8013C128.399 26.1262 128.841 26.3459 129.351 26.4605ZM146.226 25.5303C146.607 25.6816 146.93 25.9237 147.194 26.2563C147.469 26.5914 147.656 26.9725 147.757 27.3996C147.868 27.8291 147.875 28.2624 147.777 28.6995C147.653 29.2511 147.4 29.7191 147.018 30.1034C146.639 30.4773 146.15 30.7336 145.55 30.8721C144.963 31.0026 144.305 30.986 143.577 30.8222L139.518 29.91L141.964 19.0294L145.866 19.9066C146.605 20.0727 147.207 20.3391 147.671 20.7058C148.138 21.0621 148.454 21.4776 148.621 21.9524C148.787 22.4272 148.812 22.9247 148.695 23.4451C148.55 24.0903 148.253 24.5865 147.803 24.9337C147.366 25.2728 146.84 25.4716 146.226 25.5303ZM142.328 24.0475L144.717 24.5843C145.383 24.734 145.933 24.6937 146.367 24.4634C146.802 24.233 147.081 23.8421 147.205 23.2905C147.329 22.7389 147.244 22.2661 146.95 21.872C146.656 21.4779 146.165 21.2037 145.478 21.0493L143.121 20.5195L142.328 24.0475ZM143.715 29.6234C144.423 29.7824 145.012 29.7399 145.482 29.4958C145.953 29.2516 146.254 28.8329 146.388 28.2397C146.523 27.6361 146.422 27.1158 146.083 26.6788C145.746 26.2314 145.229 25.9294 144.531 25.7727L142.065 25.2183L141.202 29.0585L143.715 29.6234ZM158.234 22.6864L157.975 23.8416L155.009 23.1749L152.823 32.9003L151.402 32.581L153.588 22.8557L150.606 22.1855L150.866 21.0303L158.234 22.6864ZM167.517 28.0853C167.357 27.3826 167.03 26.7953 166.535 26.3232C166.042 25.8407 165.416 25.5141 164.656 25.3433C163.896 25.1726 163.17 25.1951 162.476 25.4109C161.796 25.6187 161.205 26.0107 160.703 26.5868C160.215 27.1548 159.875 27.8655 159.683 28.7189C159.491 29.5723 159.494 30.3602 159.693 31.0826C159.902 31.8074 160.268 32.4145 160.792 32.904C161.329 33.3855 161.977 33.7115 162.737 33.8823C163.799 34.1209 164.744 34 165.574 33.5195C166.403 33.039 166.997 32.2705 167.355 31.2139L163.015 30.2385L163.274 29.0833L169.128 30.3991L168.883 31.4918C168.598 32.3681 168.133 33.1271 167.485 33.7688C166.841 34.4001 166.079 34.8466 165.2 35.1083C164.324 35.3595 163.407 35.3776 162.449 35.1624C161.44 34.9355 160.571 34.4943 159.844 33.8389C159.119 33.173 158.607 32.3636 158.307 31.4107C158.018 30.4602 157.993 29.4541 158.231 28.3926C158.47 27.3311 158.923 26.4326 159.591 25.6973C160.272 24.9538 161.082 24.4415 162.019 24.1603C162.96 23.8687 163.934 23.8364 164.944 24.0633C166.099 24.3229 167.055 24.8383 167.811 25.6095C168.577 26.3831 169.046 27.3358 169.218 28.4677L167.517 28.0853ZM182.853 31.5652C182.65 32.4706 182.168 33.155 181.408 33.6182C180.661 34.0734 179.652 34.1583 178.383 33.873L176.291 33.4028L175.27 37.9455L173.849 37.6262L176.295 26.7456L179.807 27.5351C181.035 27.8111 181.9 28.317 182.401 29.0529C182.913 29.7911 183.064 30.6286 182.853 31.5652ZM178.646 32.7022C179.437 32.8799 180.058 32.8392 180.51 32.58C180.962 32.3208 181.259 31.8737 181.402 31.2389C181.703 29.8964 181.084 29.052 179.544 28.7059L177.452 28.2357L176.554 32.232L178.646 32.7022ZM183.327 35.2302C183.523 34.356 183.872 33.6309 184.373 33.0548C184.877 32.4683 185.477 32.0619 186.173 31.8356C186.879 31.6117 187.612 31.5851 188.372 31.7559C189.121 31.9243 189.735 32.2318 190.214 32.6784C190.693 33.125 191.013 33.6233 191.174 34.1732L191.525 32.6122L192.961 32.9349L191.038 41.4895L189.602 41.1667L189.96 39.5745C189.566 40.0108 189.051 40.3324 188.415 40.5391C187.791 40.7378 187.109 40.754 186.37 40.588C185.61 40.4172 184.966 40.0755 184.436 39.5629C183.906 39.0502 183.54 38.4159 183.338 37.6599C183.137 36.9039 183.133 36.094 183.327 35.2302ZM190.567 36.8738C190.712 36.2286 190.708 35.6374 190.555 35.1002C190.403 34.563 190.131 34.1192 189.739 33.7689C189.361 33.4104 188.906 33.1716 188.375 33.0523C187.845 32.933 187.333 32.9491 186.839 33.1006C186.346 33.2522 185.916 33.5381 185.548 33.9583C185.18 34.3786 184.924 34.9113 184.779 35.5565C184.631 36.2122 184.633 36.8138 184.783 37.3614C184.936 37.8986 185.201 38.3464 185.58 38.7048C185.961 39.0528 186.417 39.2865 186.947 39.4058C187.478 39.5251 187.99 39.509 188.483 39.3574C188.989 39.1978 189.426 38.9079 189.794 38.4877C190.164 38.057 190.422 37.5191 190.567 36.8738ZM193.873 37.6169C194.072 36.7323 194.422 36.0019 194.923 35.4258C195.426 34.8393 196.031 34.4341 196.738 34.2102C197.454 33.9886 198.218 33.9691 199.03 34.1515C200.081 34.3878 200.888 34.8369 201.45 35.4989C202.022 36.1632 202.316 36.9726 202.331 37.9271L200.801 37.5833C200.772 37.0302 200.578 36.5548 200.219 36.1571C199.871 35.7617 199.384 35.4939 198.76 35.3535C197.948 35.1711 197.229 35.3047 196.604 35.7544C195.98 36.1937 195.554 36.9233 195.325 37.9432C195.093 38.9735 195.164 39.8258 195.537 40.5C195.91 41.1743 196.503 41.6026 197.315 41.7851C197.939 41.9254 198.492 41.8967 198.974 41.6988C199.456 41.501 199.835 41.1491 200.113 40.643L201.643 40.9868C201.217 41.8095 200.602 42.4091 199.796 42.7855C198.992 43.1515 198.075 43.2187 197.044 42.9871C196.233 42.8046 195.55 42.46 194.997 41.953C194.455 41.4484 194.081 40.8233 193.877 40.0778C193.673 39.3322 193.672 38.5119 193.873 37.6169ZM206.313 37.166L205.18 42.2082C205.086 42.6244 205.108 42.9409 205.245 43.1576C205.385 43.3639 205.673 43.5161 206.11 43.6144L207.156 43.8495L206.886 45.0515L205.606 44.7638C204.815 44.586 204.263 44.2706 203.949 43.8174C203.635 43.3643 203.572 42.7214 203.759 41.8889L204.893 36.8467L203.784 36.5976L204.047 35.4268L205.156 35.6759L205.64 33.5216L207.061 33.8409L206.576 35.9952L208.809 36.4969L208.546 37.6677L206.313 37.166ZM218.117 38.5889L216.194 47.1435L214.773 46.8242L215.057 45.5598C214.689 45.9361 214.232 46.1941 213.686 46.3339C213.154 46.4657 212.596 46.4661 212.013 46.3351C211.347 46.1854 210.779 45.9156 210.309 45.5257C209.842 45.1255 209.514 44.6144 209.326 43.9927C209.148 43.3733 209.148 42.6681 209.326 41.8772L210.452 36.8662L211.857 37.182L210.773 42.0056C210.583 42.8486 210.65 43.547 210.974 44.1008C211.3 44.6442 211.833 44.999 212.572 45.165C213.331 45.3358 213.982 45.2361 214.525 44.866C215.067 44.496 215.439 43.8634 215.64 42.9684L216.696 38.2696L218.117 38.5889ZM219.03 43.2548C219.226 42.3806 219.575 41.6555 220.077 41.0793C220.58 40.4928 221.18 40.0864 221.876 39.8602C222.582 39.6363 223.315 39.6097 224.075 39.7805C224.824 39.9489 225.438 40.2564 225.917 40.703C226.396 41.1496 226.716 41.6478 226.877 42.1978L227.228 40.6367L228.664 40.9595L226.741 49.5141L225.305 49.1913L225.663 47.599C225.27 48.0354 224.755 48.357 224.118 48.5637C223.494 48.7623 222.812 48.7786 222.073 48.6125C221.313 48.4418 220.669 48.1001 220.139 47.5874C219.609 47.0748 219.243 46.4404 219.041 45.6845C218.84 44.9285 218.836 44.1186 219.03 43.2548ZM226.27 44.8984C226.415 44.2532 226.411 43.6619 226.258 43.1247C226.106 42.5875 225.834 42.1438 225.443 41.7934C225.064 41.435 224.609 41.1961 224.078 41.0769C223.548 40.9576 223.036 40.9737 222.542 41.1252C222.049 41.2767 221.619 41.5626 221.251 41.9829C220.883 42.4031 220.627 42.9359 220.482 43.5811C220.334 44.2367 220.336 44.8384 220.486 45.386C220.639 45.9232 220.904 46.371 221.283 46.7294C221.664 47.0774 222.12 47.3111 222.65 47.4304C223.181 47.5496 223.693 47.5335 224.186 47.382C224.692 47.2224 225.129 46.9325 225.497 46.5122C225.867 46.0816 226.125 45.5436 226.27 44.8984ZM233.159 38.8211L230.562 50.3729L229.142 50.0537L231.738 38.5018L233.159 38.8211ZM240.571 52.7372C239.852 52.5758 239.235 52.3059 238.719 51.9275C238.216 51.541 237.853 51.0877 237.631 50.5677C237.411 50.0373 237.363 49.4743 237.486 48.8788L239 49.2191C238.937 49.7407 239.048 50.2194 239.333 50.6551C239.63 51.0828 240.133 51.3761 240.841 51.5352C241.517 51.6872 242.085 51.64 242.545 51.3935C243.018 51.139 243.314 50.7463 243.433 50.2155C243.527 49.7993 243.488 49.4353 243.318 49.1237C243.147 48.812 242.906 48.55 242.593 48.3375C242.28 48.125 241.849 47.8752 241.301 47.5881C240.625 47.2394 240.09 46.9223 239.695 46.6367C239.31 46.3535 239.006 45.979 238.783 45.5134C238.573 45.0397 238.543 44.4646 238.695 43.7881C238.829 43.1949 239.098 42.7033 239.502 42.3132C239.907 41.9232 240.408 41.664 241.005 41.5359C241.613 41.4101 242.271 41.4267 242.979 41.5858C243.998 41.815 244.774 42.2571 245.304 42.9121C245.845 43.5694 246.063 44.3289 245.957 45.1906L244.395 44.8397C244.437 44.4117 244.3 43.9984 243.985 43.5996C243.673 43.1904 243.199 42.9145 242.564 42.7718C241.971 42.6385 241.452 42.6859 241.007 42.9139C240.565 43.1315 240.282 43.516 240.158 44.0676C240.069 44.4631 240.106 44.8103 240.268 45.1091C240.441 45.4104 240.673 45.6649 240.965 45.8727C241.27 46.0724 241.701 46.3222 242.257 46.6221C242.93 46.9812 243.463 47.3087 243.856 47.6047C244.251 47.8903 244.559 48.2711 244.78 48.7471C245.003 49.2128 245.038 49.789 244.883 50.4759C244.764 51.0067 244.511 51.4746 244.125 51.8798C243.739 52.2849 243.237 52.5712 242.62 52.7387C242.003 52.9061 241.32 52.9056 240.571 52.7372ZM246.739 54.1072C246.468 54.0463 246.26 53.9012 246.115 53.6718C245.97 53.4424 245.928 53.1924 245.989 52.9218C246.049 52.6512 246.195 52.4433 246.424 52.2981C246.653 52.1528 246.903 52.1106 247.174 52.1715C247.434 52.2299 247.632 52.3727 247.766 52.5998C247.912 52.8292 247.954 53.0792 247.893 53.3498C247.832 53.6204 247.687 53.8283 247.458 53.9735C247.239 54.1211 246.999 54.1656 246.739 54.1072ZM256.56 53.6743L251.815 52.6077L250.397 54.8309L248.898 54.494L255.263 44.5601L256.902 44.9285L258.389 56.6273L256.891 56.2904L256.56 53.6743ZM256.414 52.4279L255.682 46.4909L252.48 51.5438L256.414 52.4279ZM260.535 57.208C260.265 57.1472 260.057 57.0021 259.912 56.7727C259.766 56.5432 259.724 56.2932 259.785 56.0226C259.846 55.7521 259.991 55.5442 260.22 55.3989C260.45 55.2537 260.7 55.2115 260.97 55.2723C261.231 55.3308 261.428 55.4736 261.563 55.7007C261.708 55.9301 261.75 56.1801 261.69 56.4507C261.629 56.7213 261.484 56.9292 261.254 57.0744C261.035 57.222 260.796 57.2665 260.535 57.208ZM82.1505 32.7429C82.4386 31.8019 82.9764 31.1356 83.7641 30.7441C84.5518 30.3527 85.4764 30.2762 86.5379 30.5148C87.2456 30.6739 87.8252 30.9408 88.2766 31.3156C88.7408 31.6823 89.0539 32.1134 89.2159 32.609C89.3882 33.1069 89.4124 33.6317 89.2884 34.1832C89.1434 34.8285 88.8309 35.3432 88.351 35.7273C87.8815 36.1137 87.3349 36.3079 86.7113 36.3099L86.6938 36.3879C87.3328 36.7065 87.7951 37.1548 88.0806 37.7328C88.3662 38.3108 88.4201 38.9953 88.2423 39.7862C88.109 40.3794 87.8532 40.885 87.475 41.3029C87.0992 41.7104 86.6103 41.9886 86.0083 42.1376C85.4063 42.2865 84.7255 42.2756 83.9657 42.1049C82.8626 41.8569 82.0215 41.3672 81.4425 40.6358C80.8658 39.8939 80.6551 38.9829 80.8104 37.9027L82.1842 38.2114C82.1167 38.8522 82.257 39.4195 82.6052 39.9132C82.9535 40.4069 83.4918 40.7356 84.2203 40.8993C84.9488 41.0631 85.5425 40.9997 86.0013 40.7093C86.4729 40.4107 86.7766 39.9597 86.9122 39.3561C87.0877 38.5756 86.9538 37.9551 86.5106 37.4947C86.0675 37.0343 85.3203 36.686 84.2692 36.4498L83.9102 36.3691L84.1768 35.1827L84.5515 35.2669C85.5113 35.4717 86.2697 35.4781 86.8266 35.2862C87.3859 35.084 87.7381 34.6602 87.8831 34.015C88.0071 33.4634 87.9244 32.9802 87.635 32.5653C87.356 32.1527 86.8835 31.8716 86.2174 31.7219C85.5722 31.5769 85.0144 31.6264 84.5441 31.8706C84.0738 32.1147 83.739 32.5096 83.5399 33.0552L82.1505 32.7429ZM90.7708 37.5011C91.1731 35.7111 91.778 34.382 92.5853 33.5139C93.395 32.6354 94.5283 32.3599 95.9853 32.6874C97.4319 33.0125 98.3331 33.7453 98.689 34.8858C99.0473 36.0158 99.0252 37.4759 98.6229 39.2659C98.2136 41.0871 97.6041 42.437 96.7944 43.3155C95.9847 44.194 94.8566 44.4707 93.41 44.1455C91.953 43.8181 91.0466 43.0841 90.6907 41.9436C90.3348 40.8032 90.3615 39.3223 90.7708 37.5011ZM97.218 38.9501C97.4215 38.0447 97.5309 37.2658 97.5464 36.6133C97.5746 35.9527 97.4447 35.3878 97.1566 34.9185C96.8789 34.4516 96.3914 34.1398 95.6941 33.9831C94.9864 33.824 94.402 33.8949 93.9408 34.1958C93.49 34.4989 93.1308 34.9539 92.8632 35.5607C92.6084 36.1594 92.3793 36.9114 92.1758 37.8168C91.9652 38.7535 91.8459 39.5521 91.8177 40.2126C91.7999 40.8755 91.9298 41.4404 92.2075 41.9074C92.4956 42.3766 92.9935 42.6908 93.7012 42.8499C94.3985 43.0066 94.9725 42.9333 95.4233 42.6301C95.8845 42.3293 96.2437 41.8743 96.5008 41.2652C96.7684 40.6585 97.0075 39.8868 97.218 38.9501ZM99.9443 45.7126C99.6737 45.6517 99.4658 45.5066 99.3206 45.2772C99.1753 45.0478 99.1331 44.7978 99.194 44.5272C99.2548 44.2566 99.3999 44.0487 99.6293 43.9035C99.8588 43.7582 100.109 43.716 100.379 43.7769C100.64 43.8353 100.837 43.9781 100.972 44.2052C101.117 44.4346 101.159 44.6846 101.098 44.9552C101.038 45.2258 100.893 45.4337 100.663 45.5789C100.444 45.7265 100.204 45.771 99.9443 45.7126ZM104.423 37.7489C104.711 36.8078 105.249 36.1415 106.037 35.75C106.824 35.3586 107.749 35.2821 108.81 35.5207C109.518 35.6798 110.098 35.9467 110.549 36.3215C111.013 36.6882 111.326 37.1194 111.488 37.6149C111.661 38.1129 111.685 38.6376 111.561 39.1892C111.416 39.8344 111.103 40.3491 110.624 40.7332C110.154 41.1196 109.607 41.3138 108.984 41.3158L108.966 41.3939C109.605 41.7124 110.068 42.1607 110.353 42.7387C110.639 43.3167 110.693 44.0012 110.515 44.7921C110.381 45.3853 110.126 45.8909 109.748 46.3088C109.372 46.7163 108.883 46.9945 108.281 47.1435C107.679 47.2924 106.998 47.2815 106.238 47.1108C105.135 46.8628 104.294 46.3732 103.715 45.6417C103.138 44.8999 102.928 43.9888 103.083 42.9086L104.457 43.2173C104.389 43.8581 104.53 44.4254 104.878 44.9191C105.226 45.4128 105.764 45.7415 106.493 45.9053C107.221 46.069 107.815 46.0056 108.274 45.7152C108.745 45.4167 109.049 44.9656 109.185 44.362C109.36 43.5815 109.226 42.961 108.783 42.5006C108.34 42.0403 107.593 41.6919 106.542 41.4557L106.183 41.375L106.449 40.1886L106.824 40.2728C107.784 40.4776 108.542 40.484 109.099 40.2922C109.658 40.0899 110.011 39.6661 110.156 39.0209C110.28 38.4693 110.197 37.9861 109.907 37.5712C109.628 37.1587 109.156 36.8775 108.49 36.7278C107.845 36.5828 107.287 36.6324 106.817 36.8765C106.346 37.1206 106.012 37.5155 105.812 38.0611L104.423 37.7489ZM113.043 42.507C113.446 40.717 114.05 39.3879 114.858 38.5198C115.667 37.6414 116.801 37.3658 118.258 37.6933C119.704 38.0184 120.606 38.7512 120.962 39.8917C121.32 41.0218 121.298 42.4818 120.895 44.2718C120.486 46.0931 119.877 47.4429 119.067 48.3214C118.257 49.1999 117.129 49.4766 115.682 49.1515C114.226 48.824 113.319 48.09 112.963 46.9496C112.607 45.8091 112.634 44.3282 113.043 42.507ZM119.49 43.9561C119.694 43.0506 119.803 42.2717 119.819 41.6192C119.847 40.9586 119.717 40.3937 119.429 39.9245C119.151 39.4575 118.664 39.1457 117.967 38.989C117.259 38.8299 116.674 38.9008 116.213 39.2017C115.762 39.5049 115.403 39.9599 115.136 40.5666C114.881 41.1653 114.652 41.9174 114.448 42.8228C114.238 43.7594 114.118 44.558 114.09 45.2186C114.072 45.8815 114.202 46.4464 114.48 46.9133C114.768 47.3826 115.266 47.6967 115.974 47.8558C116.671 48.0125 117.245 47.9393 117.696 47.6361C118.157 47.3352 118.516 46.8802 118.773 46.2711C119.041 45.6644 119.28 44.8927 119.49 43.9561ZM129.775 43.283C129.806 42.0764 129.223 41.3385 128.026 41.0695C127.1 40.8614 126.327 41.0649 125.708 41.68C125.091 42.2848 124.604 43.4053 124.247 45.0415C124.608 44.5542 125.098 44.2216 125.718 44.0437C126.35 43.8578 127.009 43.8421 127.696 43.9965C128.768 44.2374 129.547 44.7622 130.032 45.5709C130.527 46.382 130.643 47.3755 130.379 48.5515C130.22 49.2592 129.936 49.8625 129.529 50.3613C129.132 50.8625 128.615 51.2164 127.978 51.4231C127.352 51.6322 126.643 51.6478 125.852 51.47C124.781 51.2291 123.997 50.8015 123.501 50.1871C123.005 49.5727 122.732 48.8171 122.682 47.9203C122.632 47.0236 122.746 45.956 123.024 44.7175C123.883 40.8981 125.644 39.2879 128.308 39.8867C129.328 40.1159 130.068 40.5718 130.526 41.2543C130.985 41.9369 131.172 42.7114 131.087 43.5777L129.775 43.283ZM127.129 45.1318C126.682 45.0312 126.239 45.0302 125.802 45.1286C125.367 45.2166 124.982 45.4199 124.648 45.7384C124.327 46.0489 124.107 46.4695 123.987 47.0002C123.809 47.7912 123.893 48.4879 124.239 49.0903C124.587 49.6824 125.188 50.0743 126.041 50.2661C126.77 50.4298 127.397 50.3359 127.925 49.9843C128.465 49.6246 128.821 49.0597 128.994 48.2896C129.177 47.4779 129.111 46.7963 128.798 46.2448C128.487 45.6829 127.931 45.3119 127.129 45.1318ZM132.126 52.9456C131.855 52.8848 131.647 52.7397 131.502 52.5103C131.357 52.2808 131.315 52.0308 131.376 51.7602C131.436 51.4897 131.581 51.2818 131.811 51.1365C132.04 50.9913 132.29 50.9491 132.561 51.0099C132.821 51.0684 133.019 51.2112 133.153 51.4383C133.299 51.6677 133.341 51.9177 133.28 52.1883C133.219 52.4589 133.074 52.6668 132.845 52.812C132.626 52.9596 132.386 53.0041 132.126 52.9456ZM134.822 52.2561C136.382 51.4916 137.613 50.8554 138.514 50.3473C139.418 49.8289 140.208 49.2575 140.884 48.6332C141.573 48.0009 141.998 47.3257 142.159 46.6076C142.311 45.9311 142.264 45.3629 142.018 44.903C141.784 44.4351 141.303 44.1192 140.574 43.9555C139.867 43.7964 139.265 43.8962 138.769 44.2548C138.285 44.6054 137.945 45.1466 137.748 45.8785L136.374 45.5697C136.678 44.4135 137.234 43.5928 138.043 43.1077C138.851 42.6225 139.781 42.4981 140.832 42.7343C141.904 42.9753 142.686 43.4625 143.177 44.196C143.678 44.9319 143.812 45.8202 143.578 46.8609C143.384 47.7247 142.934 48.5092 142.229 49.2144C141.537 49.9115 140.793 50.4986 139.997 50.9757C139.203 51.4423 138.204 51.9721 136.999 52.5651L142.369 53.772L142.103 54.9584L134.594 53.2708L134.822 52.2561ZM146.224 52.8345C146.195 53.451 146.331 53.9628 146.633 54.3696C146.946 54.7787 147.425 55.0558 148.07 55.2009C148.934 55.395 149.644 55.1995 150.202 54.6142C150.771 54.0313 151.225 52.9362 151.564 51.3288C151.24 51.748 150.793 52.0356 150.222 52.1916C149.654 52.3371 149.057 52.3398 148.433 52.1994C147.736 52.0427 147.143 51.7619 146.654 51.3569C146.179 50.9439 145.847 50.4265 145.658 49.8047C145.47 49.183 145.464 48.4819 145.639 47.7013C145.89 46.5878 146.413 45.7653 147.211 45.2338C148.01 44.692 149.003 44.5544 150.19 44.8211C151.647 45.1485 152.56 45.8513 152.93 46.9293C153.31 48.0097 153.29 49.4865 152.869 51.3598C152.574 52.671 152.211 53.7265 151.78 54.5261C151.359 55.328 150.818 55.8895 150.155 56.2107C149.503 56.5343 148.693 56.5873 147.725 56.3697C146.664 56.1311 145.901 55.659 145.436 54.9533C144.971 54.2476 144.797 53.443 144.913 52.5397L146.224 52.8345ZM148.937 51.05C149.634 51.2067 150.255 51.1221 150.798 50.7959C151.344 50.4594 151.7 49.9217 151.866 49.1828C152.041 48.4023 151.964 47.7235 151.635 47.1466C151.305 46.5696 150.745 46.1922 149.954 46.0145C149.226 45.8507 148.591 45.9487 148.051 46.3084C147.522 46.6704 147.173 47.226 147.004 47.9753C146.834 48.7351 146.91 49.3918 147.234 49.9456C147.558 50.4995 148.125 50.8676 148.937 51.05ZM153.771 55.0719L154.013 53.9948L161.198 47.6396L162.899 48.022L161.229 55.4526L162.79 55.8035L162.513 57.0367L160.952 56.6859L160.387 59.1992L158.982 58.8834L159.547 56.3701L153.771 55.0719ZM161.223 49.2033L155.687 54.2071L159.887 55.1509L161.223 49.2033ZM172.214 46.4094L164.035 62.807L162.63 62.4912L170.793 46.0901L172.214 46.4094ZM172.086 55.7773C172.488 53.9873 173.093 52.6583 173.9 51.7902C174.71 50.9117 175.844 50.6362 177.3 50.9637C178.747 51.2888 179.648 52.0216 180.004 53.1621C180.362 54.2921 180.34 55.7522 179.938 57.5422C179.529 59.3634 178.919 60.7133 178.11 61.5918C177.3 62.4703 176.172 62.7469 174.725 62.4218C173.268 62.0943 172.362 61.3604 172.006 60.2199C171.65 59.0794 171.677 57.5986 172.086 55.7773ZM178.533 57.2264C178.737 56.321 178.846 55.542 178.862 54.8895C178.89 54.229 178.76 53.6641 178.472 53.1948C178.194 52.7279 177.707 52.416 177.009 52.2593C176.302 52.1003 175.717 52.1712 175.256 52.472C174.805 52.7752 174.446 53.2302 174.178 53.837C173.924 54.4356 173.694 55.1877 173.491 56.0931C173.28 57.0297 173.161 57.8283 173.133 58.4889C173.115 59.1518 173.245 59.7167 173.523 60.1836C173.811 60.6529 174.309 60.9671 175.016 61.1261C175.714 61.2828 176.288 61.2096 176.738 60.9064C177.2 60.6056 177.559 60.1506 177.816 59.5415C178.084 58.9347 178.323 58.163 178.533 57.2264ZM181.888 57.9805C182.291 56.1905 182.895 54.8614 183.703 53.9933C184.513 53.1149 185.646 52.8393 187.103 53.1668C188.549 53.4919 189.451 54.2247 189.807 55.3652C190.165 56.4953 190.143 57.9553 189.74 59.7453C189.331 61.5666 188.722 62.9164 187.912 63.7949C187.102 64.6734 185.974 64.9501 184.528 64.625C183.071 64.2975 182.164 63.5635 181.808 62.4231C181.452 61.2826 181.479 59.8017 181.888 57.9805ZM188.335 59.4296C188.539 58.5241 188.648 57.7452 188.664 57.0927C188.692 56.4321 188.562 55.8672 188.274 55.398C187.996 54.931 187.509 54.6192 186.812 54.4625C186.104 54.3034 185.519 54.3743 185.058 54.6752C184.608 54.9784 184.248 55.4334 183.981 56.0401C183.726 56.6388 183.497 57.3909 183.293 58.2963C183.083 59.2329 182.963 60.0315 182.935 60.6921C182.917 61.355 183.047 61.9199 183.325 62.3868C183.613 62.8561 184.111 63.1702 184.819 63.3293C185.516 63.486 186.09 63.4128 186.541 63.1096C187.002 62.8087 187.361 62.3537 187.618 61.7446C187.886 61.1379 188.125 60.3662 188.335 59.4296ZM191.691 60.1837C192.093 58.3936 192.698 57.0646 193.505 56.1965C194.315 55.318 195.448 55.0425 196.905 55.37C198.352 55.6951 199.253 56.4279 199.609 57.5684C199.967 58.6984 199.945 60.1585 199.543 61.9485C199.133 63.7697 198.524 65.1196 197.714 65.9981C196.905 66.8766 195.776 67.1533 194.33 66.8281C192.873 66.5007 191.966 65.7667 191.611 64.6262C191.255 63.4857 191.281 62.0049 191.691 60.1837ZM198.138 61.6327C198.341 60.7273 198.451 59.9483 198.466 59.2959C198.494 58.6353 198.365 58.0704 198.076 57.6011C197.799 57.1342 197.311 56.8224 196.614 56.6656C195.906 56.5066 195.322 56.5775 194.861 56.8783C194.41 57.1815 194.051 57.6365 193.783 58.2433C193.528 58.842 193.299 59.594 193.096 60.4994C192.885 61.4361 192.766 62.2347 192.738 62.8952C192.72 63.5581 192.85 64.123 193.127 64.59C193.415 65.0592 193.913 65.3734 194.621 65.5324C195.318 65.6892 195.892 65.6159 196.343 65.3127C196.804 65.0119 197.164 64.5569 197.421 63.9478C197.688 63.341 197.927 62.5693 198.138 61.6327ZM200.283 66.9689C201.843 66.2045 203.074 65.5682 203.975 65.0602C204.879 64.5417 205.669 63.9704 206.345 63.3461C207.033 62.7137 207.459 62.0385 207.62 61.3204C207.772 60.644 207.725 60.0758 207.478 59.6159C207.245 59.1479 206.763 58.832 206.035 58.6683C205.327 58.5092 204.725 58.609 204.229 58.9676C203.746 59.3182 203.406 59.8594 203.208 60.5913L201.835 60.2825C202.138 59.1263 202.695 58.3056 203.503 57.8205C204.312 57.3354 205.242 57.2109 206.293 57.4472C207.365 57.6881 208.146 58.1753 208.638 58.9089C209.139 59.6448 209.273 60.5331 209.039 61.5738C208.845 62.4375 208.395 63.222 207.69 63.9272C206.998 64.6244 206.253 65.2115 205.457 65.6885C204.664 66.1552 203.665 66.685 202.46 67.2779L207.83 68.4849L207.563 69.6713L200.055 67.9836L200.283 66.9689ZM216.765 65.2289L216.494 66.4309L210.266 65.0309L210.536 63.8289L216.765 65.2289ZM217.86 70.9196C219.42 70.1551 220.651 69.5188 221.552 69.0108C222.456 68.4923 223.246 67.921 223.922 67.2967C224.611 66.6643 225.036 65.9891 225.197 65.271C225.349 64.5946 225.302 64.0264 225.055 63.5665C224.822 63.0985 224.341 62.7826 223.612 62.6189C222.904 62.4599 222.303 62.5596 221.807 62.9183C221.323 63.2688 220.983 63.81 220.786 64.5419L219.412 64.2331C219.715 63.0769 220.272 62.2562 221.08 61.7711C221.889 61.286 222.819 61.1615 223.87 61.3978C224.942 61.6387 225.724 62.1259 226.215 62.8595C226.716 63.5954 226.85 64.4837 226.616 65.5244C226.422 66.3882 225.972 67.1726 225.267 67.8778C224.575 68.575 223.831 69.1621 223.035 69.6391C222.241 70.1058 221.242 70.6356 220.037 71.2285L225.407 72.4355L225.14 73.6219L217.632 71.9342L217.86 70.9196ZM234.979 66.9284C235.01 65.7218 234.426 64.9839 233.23 64.7149C232.303 64.5068 231.531 64.7103 230.911 65.3254C230.294 65.9302 229.808 67.0507 229.451 68.6869C229.812 68.1996 230.302 67.867 230.921 67.6891C231.553 67.5032 232.213 67.4875 232.9 67.6419C233.972 67.8828 234.75 68.4076 235.235 69.2163C235.731 70.0274 235.847 71.0209 235.582 72.1969C235.423 72.9046 235.14 73.5079 234.733 74.0067C234.336 74.5079 233.819 74.8618 233.182 75.0685C232.556 75.2776 231.847 75.2932 231.056 75.1154C229.984 74.8745 229.2 74.4469 228.704 73.8325C228.208 73.2181 227.935 72.4625 227.885 71.5657C227.835 70.669 227.95 69.6014 228.228 68.3629C229.086 64.5435 230.848 62.9333 233.512 63.5321C234.532 63.7613 235.271 64.2172 235.73 64.8997C236.189 65.5823 236.376 66.3568 236.29 67.2231L234.979 66.9284ZM232.333 68.7772C231.886 68.6766 231.443 68.6756 231.005 68.774C230.57 68.862 230.186 69.0653 229.852 69.3838C229.53 69.6943 229.31 70.1149 229.191 70.6456C229.013 71.4366 229.097 72.1333 229.443 72.7357C229.791 73.3278 230.391 73.7197 231.245 73.9115C231.973 74.0752 232.601 73.9813 233.128 73.6297C233.668 73.27 234.025 72.7051 234.198 71.935C234.38 71.1233 234.315 70.4417 234.002 69.8902C233.691 69.3283 233.134 68.9573 232.333 68.7772Z" fill="black"/>
</svg>
