<svg width="97" height="33" viewBox="0 0 97 33" fill="none" xmlns="http://www.w3.org/2000/svg">
<path d="M92.2658 24.0612C88.8629 24.3451 85.4617 24.642 82.0589 24.921C81.8406 24.939 81.4764 25.154 81.4731 24.6535C82.1491 23.0719 82.6429 21.4262 83.1516 19.7872C83.4108 18.952 83.6356 18.0726 84.241 17.4311C84.766 16.8782 84.853 16.3285 84.6578 15.6542C84.5987 15.4491 84.6315 15.1423 84.3755 15.121C84.049 15.0947 84.1393 15.4196 84.1163 15.6132C84.0786 15.9233 83.9506 16.1891 83.7718 16.4335C83.2369 17.1702 82.8759 17.9889 82.6019 18.8519C82.008 20.7224 81.4075 22.5911 80.8103 24.4616C80.7102 24.7766 80.6363 25.0801 80.1966 25.0949C79.5207 25.1162 78.848 25.1835 78.0883 25.2376C78.295 24.5469 78.4821 23.9316 78.6642 23.3131C79.2499 21.3229 79.8193 19.3278 81.2237 17.7067C81.5387 17.3441 81.4649 16.2891 81.1761 15.8675C80.0178 17.6148 78.9513 19.4049 78.3918 21.4525C78.0752 22.6092 77.7191 23.7544 77.3713 24.9029C77.3122 25.0949 77.3041 25.3754 76.9808 25.3164C76.6264 25.2508 76.8775 25.0211 76.8873 24.8734C76.9103 24.5239 76.7708 24.2368 76.592 23.9562C75.2088 21.7888 73.7371 19.7002 71.8158 17.9528C69.3498 15.7116 66.6984 13.7936 63.4679 12.8026C62.5819 12.3728 61.6286 12.1988 60.6672 12.0577C57.5153 11.4736 54.3307 11.2784 51.1313 11.2899C50.731 11.2899 50.4783 11.3046 50.7572 10.778C51.4775 9.41946 51.9287 7.95922 52.2224 6.45304C52.5587 4.73521 52.813 3.00097 52.539 1.25524C52.3372 -0.026157 51.489 -0.377271 50.5193 0.438166C48.8507 1.84262 47.1329 3.21918 45.6513 4.80904C43.9072 6.67946 42.3567 8.73856 41.1557 11.0257C40.9982 11.326 40.8292 11.5442 40.4305 11.5737C39.4527 11.6426 38.4715 11.7312 37.5035 11.8855C36.8866 11.9839 36.8324 11.7706 36.9243 11.2472C37.2689 9.28656 37.5724 7.3177 37.9137 5.3554C37.9875 4.92717 38.1106 4.52356 37.5265 4.3923C36.8964 4.2512 36.9752 4.8156 36.9014 5.11586C36.3944 7.18316 35.9005 9.25375 35.4657 11.3358C35.3443 11.9232 35.1261 12.1381 34.5272 12.2087C30.8947 12.6385 27.3606 13.559 23.8445 14.527C22.1185 15.0012 22.1398 15.0635 21.0307 13.6049C20.4843 12.8863 19.8969 12.2021 19.2341 11.5885C18.3448 10.7648 17.3752 10.0643 16.1791 9.74924C12.8993 8.88787 9.71301 9.40469 6.66455 10.6467C5.03532 11.3112 3.55539 12.3645 2.24774 13.5721C1.45363 14.3055 0.372396 14.847 0.208324 16.1087C0.101677 16.9208 -0.0476283 17.7297 0.014719 18.5533C0.544671 25.5182 4.89257 31.4116 13.4342 31.684C18.1824 31.8366 22.7502 30.7898 27.1981 29.2131C28.2498 28.8406 29.1243 28.7389 30.0251 29.5806C30.6978 30.209 31.2999 30.0974 31.9726 29.4543C32.1449 29.2902 32.2565 29.0736 32.5617 29.0786C33.8184 29.0966 35.0752 29.0785 36.332 29.0999C36.6536 29.1048 36.8948 29.1786 36.9719 29.6413C37.1901 30.9375 38.3649 31.62 39.6528 31.3165C41.1229 30.9703 42.3781 30.2188 43.5397 29.2918C43.835 29.0556 44.132 28.944 44.5044 28.926C46.3601 28.8374 48.2141 28.7307 50.0698 28.6339C50.329 28.6208 50.5702 28.5322 50.6801 28.9522C50.8737 29.6889 51.4988 29.7627 52.1305 29.6561C52.7934 29.5462 53.3627 29.1983 53.8516 28.757C54.1978 28.4452 54.5653 28.2976 55.0231 28.2648C60.2816 27.8808 65.5007 27.1179 70.751 26.6519C70.9856 26.6306 71.2301 26.542 71.4631 26.7143C72.9069 27.7922 74.2901 27.3738 75.6272 26.4993C76.0522 26.2204 76.4525 26.0268 76.9808 26.2007C76.9185 26.4403 76.866 26.6519 76.8102 26.8636C76.3606 28.5535 76.021 30.2648 75.7421 31.9892C75.7109 32.1828 75.5747 32.4633 75.9111 32.5142C76.1457 32.5503 76.2048 32.314 76.2622 32.1319C76.3262 31.9236 76.382 31.7119 76.4361 31.5002C76.8529 29.8628 77.263 28.2221 77.6896 26.5879C77.7602 26.3205 77.747 25.9513 78.1818 25.9464C78.8873 25.9382 79.5814 25.7184 80.341 25.807C79.8193 27.7036 79.0022 29.469 78.2721 31.4395C78.6937 31.1967 78.8152 30.9572 78.9628 30.7291C79.9801 29.154 80.4411 27.3377 81.1843 25.6429C82.5724 25.528 83.9621 25.4247 85.3485 25.2934C88.6923 24.9768 92.0377 24.6683 95.3749 24.2959C95.8376 24.2434 96.4726 24.3566 96.8253 23.7134C95.2634 23.8315 93.767 23.9349 92.2723 24.0596L92.2658 24.0612ZM46.3913 5.39806C47.7432 4.01493 49.146 2.69415 50.5702 1.39142C50.7704 1.2093 50.964 1.00257 51.1969 0.874597C51.8007 0.544813 52.1436 0.725292 52.1748 1.41768C52.2667 3.47185 52.1157 5.50963 51.4545 7.47029C51.0739 8.60074 50.58 9.69346 50.1403 10.8042C50.0107 11.1324 49.8269 11.3391 49.4233 11.3424C47.0213 11.3654 44.6209 11.4113 42.2189 11.4441C42.173 11.4441 42.127 11.3982 41.9827 11.3211C43.269 9.16679 44.6587 7.16675 46.3913 5.39642V5.39806ZM41.3001 12.7075C41.4412 12.4318 41.5659 12.2152 41.9449 12.1956C44.3683 12.061 46.7932 12.0052 49.3692 11.9954C46.3798 16.6813 42.1402 19.8561 37.6659 23.0965C37.935 21.2868 38.4059 19.7265 38.9211 18.176C39.5495 16.2809 40.3895 14.4794 41.3018 12.7091L41.3001 12.7075ZM21.9117 30.1237C18.8928 30.7882 15.8624 31.1819 12.7582 31.0376C3.7572 30.6175 0.00815613 22.6108 1.16486 16.1989C1.4766 14.4696 2.72683 13.3145 4.18707 12.5352C6.93199 11.07 9.88036 10.2168 13.0191 10.1283C14.0051 10.1004 14.983 10.1233 15.9559 10.3022C17.8001 10.6418 19.029 11.8707 20.1595 13.2276C20.5598 13.7083 20.8912 14.2465 21.2784 14.7387C21.5902 15.1357 21.4983 15.3146 21.034 15.4803C19.3407 16.0906 17.6803 16.783 16.0987 17.6444C14.7074 18.4024 13.3406 19.1981 12.2315 20.3614C10.8467 21.8134 10.8402 23.2606 12.2627 24.6519C13.9132 26.2664 16.0068 27.0277 18.1824 27.6035C20.486 28.2139 22.8519 28.3944 25.2162 28.5962C25.6198 28.6306 26.0218 28.6831 26.6682 28.7553C24.9602 29.3788 23.4507 29.7824 21.9134 30.122L21.9117 30.1237ZM28.4615 27.9842C28.3023 28.2894 27.9168 28.0121 27.6297 28.0859C23.9118 27.8218 20.1775 27.6134 16.586 26.4731C15.2882 26.0613 14.033 25.5149 13.001 24.5879C11.6589 23.382 11.6425 22.1482 12.9058 20.8569C14.4005 19.3294 16.2414 18.3253 18.1545 17.4508C19.2423 16.9536 20.3842 16.5714 21.4884 16.107C21.8904 15.938 22.1021 16.0069 22.3351 16.3909C23.9856 19.1046 25.436 21.9185 26.7453 24.8094C27.1243 25.6445 27.6658 26.4042 28.1219 27.2048C28.2663 27.4559 28.6026 27.7102 28.4599 27.9825L28.4615 27.9842ZM30.0825 28.0761C30.7503 27.7594 31.3229 27.4871 31.9119 27.2081C31.9874 28.3107 31.7134 28.4239 30.0825 28.0761ZM32.3943 26.1088C32.3418 26.3484 32.1006 26.4157 31.907 26.5108C31.3951 26.7651 30.8865 27.0309 30.3631 27.2623C28.9931 27.8693 29.2605 27.9022 28.5747 26.7159C26.5648 23.2343 24.8289 19.6001 22.7206 16.1727C22.399 15.6493 22.824 15.6247 23.1046 15.5393C25.08 14.9421 27.0718 14.4056 29.0833 13.938C30.8405 13.5295 32.6224 13.2932 34.3976 13.0143C34.903 12.9355 35.0966 12.9749 34.9916 13.6213C34.4616 16.8798 33.4444 19.9676 31.9169 22.8881C31.7528 23.2015 31.6773 23.6117 31.2442 23.7577C30.8717 23.884 30.9341 24.1613 31.1309 24.4074C31.336 24.6667 31.6133 24.8324 31.8972 24.5584C32.1991 24.2663 32.4435 23.9136 32.7126 23.5871C32.8471 24.5042 32.5699 25.2983 32.3943 26.1072V26.1088ZM36.0761 28.3976C34.9719 28.314 33.8562 28.3747 32.7421 28.3747C32.7897 27.0178 33.3837 26.2253 34.5683 25.7561C35.282 25.4739 35.8989 24.9472 36.7455 24.414C36.5322 25.6724 36.7192 26.6897 36.7635 27.7118C36.7832 28.1614 36.7012 28.4452 36.0777 28.3976H36.0761ZM36.8653 23.3098C36.8275 23.546 36.7373 23.7118 36.5338 23.8332C35.5346 24.4337 34.5387 25.0391 33.3295 25.7709C33.6708 24.2581 34.0137 22.9849 34.2385 21.6904C34.729 18.8651 35.5888 16.1415 36.396 13.4015C36.5404 12.9142 36.7209 12.6763 37.259 12.6468C38.2763 12.591 39.2886 12.4581 40.4502 12.3416C38.6389 15.9676 37.4641 19.5476 36.8653 23.3114V23.3098ZM38.524 30.7291C37.7102 30.5355 37.8563 29.7184 37.469 29.0703H42.4191C41.8366 29.9744 39.5544 30.9736 38.524 30.7291ZM51.2642 21.61C51.0919 23.5083 50.8737 25.4033 50.6932 27.3C50.6653 27.6003 50.6604 27.8004 50.2683 27.8201C48.539 27.9038 46.8097 28.017 44.8375 28.1351C47.63 25.4001 49.4857 22.2827 51.2823 18.8585C51.5054 19.9529 51.3397 20.7847 51.2642 21.61ZM52.731 28.6027C52.3651 28.8242 51.991 29.0211 51.5464 28.8521C51.5087 28.8374 51.4791 28.67 51.4988 28.6585C51.8795 28.4272 52.3126 28.5092 52.7655 28.4403C52.7425 28.5519 52.7458 28.5913 52.731 28.6011V28.6027ZM61.1971 26.7963C59.2676 27.172 57.3053 27.2229 55.2003 27.4477C57.0166 25.1195 58.2143 22.5879 59.3628 20.0169C59.4022 21.0522 59.1347 22.0349 58.9953 23.0325C58.8853 23.8151 58.7557 24.5945 58.6589 25.3771C58.5195 26.501 58.91 26.88 60.0338 26.7422C60.1946 26.7225 60.3521 26.6798 60.5113 26.647C62.6442 25.697 63.6697 23.7675 64.7624 21.7478C65.0971 23.3639 64.5589 25.1408 66.303 26.3205C64.5146 26.4862 62.8575 26.6404 61.1988 26.7947L61.1971 26.7963ZM69.6107 26.0006C68.9889 26.0596 68.3671 26.1171 67.7042 26.1138C68.7034 25.4936 69.4253 24.6322 70.0849 23.5067C70.2178 24.094 70.29 24.496 70.4016 24.8865C70.6936 25.8972 70.7002 25.8956 69.6107 26.0006ZM73.263 26.4124C73.7519 26.2614 74.1194 26.2532 74.6937 26.3156C74.1325 26.5781 73.7864 26.7586 73.263 26.4124ZM75.1203 25.5051C74.1145 25.6002 73.1071 25.679 72.1013 25.7873C71.678 25.8332 71.4598 25.6855 71.3236 25.277C70.8774 23.9447 70.8757 22.5961 71.0874 21.231C71.1251 20.9882 71.1989 20.7486 71.2137 20.5058C71.2301 20.2416 71.112 20.007 70.838 19.943C70.5213 19.8676 70.4016 20.0989 70.3458 20.3581C70.2736 20.7043 70.2243 21.0554 70.1522 21.4016C69.8273 22.9603 69.0742 24.2663 67.7419 25.1605C66.6952 25.8644 66.1193 25.574 65.8666 24.3434C65.6992 23.5313 65.737 22.7126 65.7255 21.8938C65.7189 21.3754 65.7304 20.8553 65.7124 20.3368C65.7009 19.9758 65.5286 19.6723 65.1627 19.6165C64.8198 19.564 64.7361 19.9102 64.6279 20.1465C64.157 21.19 63.7189 22.2499 63.1053 23.2228C62.4572 24.2499 61.7057 25.1835 60.5983 25.7512C60.3144 25.8972 59.942 26.0924 59.663 25.9136C59.3562 25.7151 59.5433 25.3131 59.5761 25.0063C59.7779 23.1063 60.2947 21.249 60.3768 19.3343C60.3981 18.8175 60.6032 18.0775 59.896 17.9496C59.2561 17.8347 59.179 18.5911 58.9953 19.0324C57.9862 21.4525 56.9427 23.8447 55.4103 26.0022C54.6556 27.0654 53.8549 27.7627 52.4226 27.7102C51.6268 27.6807 51.4069 27.6052 51.4775 26.7832C51.6613 24.6601 51.9894 22.5551 52.2355 20.4402C52.3028 19.8676 52.3323 19.2933 52.2437 18.7256C52.1814 18.3318 51.9664 18.007 51.548 17.8971C51.1264 17.7855 50.8622 18.0546 50.6752 18.3614C50.2174 19.1046 49.7679 19.8528 49.361 20.6239C48.032 23.1539 46.3962 25.4591 44.4109 27.5199C43.9646 27.9825 43.5003 28.2188 42.844 28.2172C41.287 28.2139 39.7283 28.2418 38.1729 28.3205C37.5396 28.3533 37.3279 28.104 37.3427 27.5346C37.3443 27.4526 37.3427 27.3706 37.3329 27.2885C37.1261 25.259 37.5117 23.7134 39.5134 22.4583C42.9146 20.3253 45.9598 17.6706 48.4422 14.4548C48.8261 13.9577 49.2789 13.4819 49.5234 12.9191C49.8958 12.0577 50.4947 11.9298 51.3331 11.9544C54.4456 12.0397 57.5629 11.997 60.6458 12.5303L61.0495 12.632C61.7336 12.8043 62.4178 12.9765 63.102 13.1488C63.102 13.1521 63.1036 13.157 63.1053 13.1603C63.1135 13.1603 63.1217 13.157 63.1315 13.1554C68.8183 15.098 72.8511 18.9684 75.834 24.0579C76.3803 24.9915 76.1687 25.405 75.1186 25.5051H75.1203Z" fill="#003D7E"/>
</svg>
