<svg width="760" height="309" viewBox="0 0 760 309" fill="none" xmlns="http://www.w3.org/2000/svg">
<g clip-path="url(#clip0_1_2)">
<path d="M289.15 118.75C260.46 118.75 247.29 130.82 247.29 158.42V162.65C247.29 188.83 258.74 201.53 285.7 201.53C294.32 201.53 302.95 199.96 309.06 195.1V198.24C309.06 212.98 302.63 217.84 287.58 217.84H278.57C273.42 217.93 271.08 218.84 267.97 223.93L267.95 223.92C242.1 264.83 197.22 289.83 148.31 289.83C70.27 289.83 6.78 226.34 6.78 148.3C6.78 70.26 70.27 6.77 148.31 6.77C203.13 6.77 252.99 38.52 276.33 87.92H282.83C259.05 35.02 206.34 0.880005 148.31 0.880005C67.02 0.880005 0.880005 67.01 0.880005 148.31C0.880005 229.61 67.02 295.74 148.31 295.74C196.12 295.74 240.24 272.82 267.74 234.78H288.83C316.58 234.78 330.85 224.28 330.85 197.47V157.02C330.85 130.36 317.21 118.75 289.15 118.75ZM309.21 165.32C309.21 180.06 304.04 184.6 289.14 184.6C272.36 184.6 269.07 178.8 269.07 161.71V159.04C269.07 142.11 272.05 135.99 289.14 135.99C305.92 135.99 309.21 141.95 309.21 159.19V165.32ZM86.74 89.12V166.1C86.74 194.63 99.91 206.55 128.6 206.55C158.39 206.55 171.56 194.95 171.56 166.26V158.89C171.56 131.92 159.33 118.75 132.68 118.75C124.21 118.75 114.96 120.47 108.69 125.33V85.66L86.74 89.12ZM129.38 136C144.43 136 149.76 141.96 149.76 159.67V166.25C149.76 183.5 144.43 189.45 129.06 189.45C113.7 189.45 108.36 183.49 108.36 166.09V157.15C108.37 141.33 113.71 136 129.38 136ZM236.47 138.98L240.08 121.42H209.04V97.43L187.25 100.72V172.37C187.25 197.14 196.97 204.51 223.47 204.51H235.07L238.68 187.11H225.04C212.97 187.11 209.05 184.13 209.05 170.96V138.98H236.47ZM391.36 124.94C369.91 124.94 359.93 135.53 359.93 158.28V220.14H366.7V188.37C371.59 194.73 380.72 198.46 391.75 198.46C413.1 198.46 422.61 188.18 422.61 165.12V158.08C422.6 135.16 412.97 124.94 391.36 124.94ZM415.65 165.13C415.65 184.64 409.17 191.89 391.74 191.89C375.24 191.89 366.88 183.85 366.88 167.98V158.28C366.88 139.27 373.97 131.52 391.36 131.52C408.84 131.52 415.65 138.97 415.65 158.09V165.13ZM707.26 126.08H688.93L687.41 132.65H707.26C725.42 132.65 731.55 137.48 731.55 151.8V158.73C727.05 154.22 719.08 151.94 707.83 151.94C689.88 151.94 681.15 159.55 681.15 175.2V176.34C681.15 191.01 689.74 198.46 706.69 198.46H711.25C729.2 198.46 738.31 191.02 738.31 176.34V151.81C738.31 133.54 729.31 126.08 707.26 126.08ZM731.55 177.3C731.55 187.8 725.81 191.89 711.06 191.89H708.21C693.99 191.89 687.91 187.24 687.91 176.35V175.21C687.91 163.38 693.69 158.34 707.25 158.34H708.39C724.62 158.34 731.54 163.22 731.54 174.64V177.3H731.55ZM752.28 98.89V198.46H759.05V98.89H752.28ZM599.88 132.66L601.4 126.09H571.14V107.29L564.19 108.53V172.92C564.19 191.26 571.06 198.08 589.54 198.08H599.53L600.79 191.51H589.53C575.6 191.51 571.13 187.09 571.13 173.31V132.66H599.88ZM662.51 169.88C662.51 186.83 657.21 192.27 640.69 192.27C624.66 192.27 619.25 186.62 619.25 169.88V126.08H612.3V169.88C612.3 190.72 620.26 198.84 640.69 198.84C660.99 198.84 669.27 190.45 669.27 169.88V126.08H662.5V169.88H662.51ZM459.44 126.08H441.1L439.59 132.65H459.44C477.46 132.65 483.54 137.48 483.54 151.8V158.73C479.04 154.22 471.08 151.94 459.82 151.94C441.87 151.94 433.14 159.55 433.14 175.2V176.34C433.14 191.01 441.8 198.46 458.87 198.46H463.44C481.27 198.46 490.31 191.02 490.31 176.34V151.81C490.31 133.54 481.37 126.08 459.44 126.08ZM483.54 177.3C483.54 187.94 478.04 191.89 463.24 191.89H460.39C446.03 191.89 439.9 187.24 439.9 176.35V175.21C439.9 163.38 445.68 158.34 459.24 158.34H460.38C476.61 158.34 483.53 163.22 483.53 174.64V177.3H483.54ZM509.52 165.13V159.04C509.52 139.56 516.18 132.66 534.95 132.66H550.81L552.32 126.09H534.94C512.54 126.09 502.55 136.25 502.55 159.05V165.14C502.55 187.93 512.54 198.1 534.94 198.1H551L552.52 191.53H534.95C516.65 191.51 509.52 184.11 509.52 165.13ZM363.82 273.92C363.82 277.11 364.02 279.75 364.41 281.82C364.8 283.89 365.5 285.54 366.51 286.78C367.52 288.01 368.9 288.88 370.67 289.38C372.44 289.88 374.72 290.14 377.52 290.14C379.93 290.14 382.25 290.13 384.49 290.1C386.73 290.07 389.14 290.03 391.71 289.97L390.79 294.25C386.364 294.37 381.937 294.427 377.51 294.42C373.81 294.42 370.76 294 368.35 293.16C365.94 292.32 364.05 291.07 362.68 289.42C361.31 287.77 360.34 285.71 359.78 283.25C359.22 280.79 358.94 277.93 358.94 274.68V269.39C358.94 265.86 359.29 262.85 359.99 260.36C360.69 257.87 361.78 255.84 363.27 254.27C364.75 252.7 366.64 251.56 368.94 250.83C371.24 250.1 373.95 249.74 377.09 249.74C383.36 249.74 387.88 251.1 390.66 253.81C393.43 256.53 394.82 260.82 394.82 266.7V268.72C394.82 269.9 394.75 270.82 394.61 271.49C394.47 272.16 394.23 272.68 393.9 273.04C393.56 273.41 393.1 273.64 392.51 273.75C391.92 273.86 391.21 273.92 390.37 273.92H363.82ZM377.01 253.84C374.66 253.84 372.64 254.06 370.96 254.51C369.28 254.96 367.91 255.77 366.84 256.95C365.78 258.13 365.01 259.75 364.53 261.82C364.05 263.89 363.82 266.55 363.82 269.8H390.28V266.94C390.28 264.42 390.03 262.32 389.52 260.64C389.02 258.96 388.23 257.62 387.17 256.61C386.11 255.6 384.73 254.89 383.05 254.47C381.37 254.05 379.36 253.84 377.01 253.84ZM405.23 294.25V263.84C405.23 258.75 406.62 255.12 409.39 252.96C412.16 250.8 416.04 249.73 421.02 249.73C424.66 249.73 427.6 250.32 429.84 251.49C432.08 252.67 433.65 254.23 434.54 256.19C435.49 254.23 437.12 252.66 439.41 251.49C441.71 250.31 444.59 249.73 448.06 249.73C450.52 249.73 452.73 249.97 454.7 250.44C456.66 250.92 458.31 251.7 459.66 252.79C461 253.88 462.04 255.32 462.77 257.12C463.5 258.91 463.86 261.15 463.86 263.84V294.25H458.99V264.26C458.99 260.45 458.14 257.79 456.43 256.28C454.72 254.77 451.94 254.01 448.07 254.01C444.26 254.01 441.48 254.74 439.71 256.19C437.95 257.65 437.06 260.22 437.06 263.92V294.24H432.1V264.25C432.1 260.44 431.22 257.78 429.45 256.27C427.69 254.76 424.87 254 421.01 254C416.92 254 414.08 254.83 412.48 256.48C410.88 258.13 410.09 260.75 410.09 264.33V294.23H405.23V294.25ZM494.94 249.73C497.91 249.73 500.55 250.01 502.88 250.57C505.2 251.13 507.16 252.14 508.76 253.59C510.36 255.05 511.57 257.05 512.41 259.6C513.25 262.15 513.67 265.44 513.67 269.47V275.69C513.67 279.5 513.3 282.66 512.58 285.18C511.85 287.7 510.72 289.75 509.18 291.31C507.64 292.88 505.69 293.99 503.34 294.63C500.99 295.27 498.22 295.6 495.02 295.6C491.71 295.6 488.85 295.11 486.41 294.13C483.97 293.15 482.11 291.68 480.82 289.72V308.96H475.95V269.48C475.95 265.62 476.37 262.41 477.21 259.86C478.05 257.31 479.27 255.3 480.86 253.81C482.46 252.33 484.43 251.28 486.78 250.66C489.14 250.04 491.86 249.73 494.94 249.73ZM495.02 291.31C497.76 291.31 500.03 291.05 501.82 290.51C503.61 289.98 505.01 289.1 506.02 287.86C507.03 286.63 507.73 285.02 508.12 283.03C508.51 281.04 508.71 278.59 508.71 275.68V269.46C508.71 266.21 508.43 263.57 507.87 261.52C507.31 259.48 506.47 257.91 505.35 256.82C504.23 255.73 502.79 254.99 501.02 254.59C499.26 254.2 497.2 254 494.85 254C492.38 254 490.27 254.2 488.51 254.59C486.75 254.98 485.3 255.74 484.18 256.86C483.06 257.98 482.22 259.55 481.66 261.56C481.1 263.58 480.82 266.21 480.82 269.46V277.44C480.82 280.18 481.16 282.45 481.83 284.24C482.5 286.03 483.45 287.45 484.69 288.48C485.92 289.52 487.42 290.24 489.18 290.66C490.95 291.1 492.9 291.31 495.02 291.31ZM524.09 294.25V265.77C524.09 262.86 524.41 260.45 525.06 258.55C525.7 256.65 526.67 255.12 527.96 253.97C529.25 252.82 530.84 252.03 532.75 251.58C534.65 251.13 536.87 250.91 539.39 250.91H544.68C546.36 250.91 547.68 250.94 548.63 250.99L547.71 255.36C546.98 255.3 545.82 255.26 544.22 255.23C542.62 255.2 541.1 255.19 539.64 255.19C537.51 255.19 535.76 255.37 534.39 255.74C533.02 256.1 531.94 256.71 531.16 257.55C530.38 258.39 529.82 259.52 529.48 260.95C529.14 262.38 528.98 264.18 528.98 266.37V294.26H524.09V294.25ZM558.53 273.92C558.53 277.11 558.73 279.75 559.12 281.82C559.51 283.89 560.21 285.54 561.22 286.78C562.23 288.01 563.61 288.88 565.38 289.38C567.15 289.88 569.43 290.14 572.23 290.14C574.64 290.14 576.96 290.13 579.2 290.1C581.44 290.07 583.85 290.03 586.42 289.97L585.5 294.25C581.074 294.37 576.647 294.427 572.22 294.42C568.52 294.42 565.47 294 563.06 293.16C560.65 292.32 558.76 291.07 557.39 289.42C556.02 287.77 555.05 285.71 554.49 283.25C553.93 280.79 553.65 277.93 553.65 274.68V269.39C553.65 265.86 554 262.85 554.7 260.36C555.4 257.87 556.49 255.84 557.98 254.27C559.46 252.7 561.35 251.56 563.65 250.83C565.95 250.1 568.66 249.74 571.8 249.74C578.07 249.74 582.59 251.1 585.37 253.81C588.14 256.53 589.53 260.82 589.53 266.7V268.72C589.53 269.9 589.46 270.82 589.32 271.49C589.18 272.16 588.94 272.68 588.61 273.04C588.27 273.41 587.81 273.64 587.22 273.75C586.63 273.86 585.92 273.92 585.08 273.92H558.53ZM571.72 253.84C569.37 253.84 567.35 254.06 565.67 254.51C563.99 254.96 562.62 255.77 561.55 256.95C560.49 258.13 559.72 259.75 559.24 261.82C558.76 263.89 558.53 266.55 558.53 269.8H584.99V266.94C584.99 264.42 584.74 262.32 584.23 260.64C583.73 258.96 582.94 257.62 581.88 256.61C580.82 255.6 579.44 254.89 577.76 254.47C576.08 254.05 574.07 253.84 571.72 253.84ZM619.93 270.22C622.28 270.44 624.23 270.88 625.77 271.52C627.31 272.16 628.56 272.96 629.51 273.91C630.46 274.86 631.13 275.98 631.53 277.27C631.92 278.56 632.12 279.96 632.12 281.47V282.23C632.12 284.19 631.85 285.93 631.32 287.44C630.802 288.931 629.885 290.252 628.67 291.26C627.44 292.3 625.8 293.08 623.76 293.61C621.72 294.14 619.18 294.41 616.16 294.41H606.96C605.53 294.41 604.1 294.4 602.68 294.37C601.25 294.34 599.75 294.3 598.19 294.24L599.11 289.96C601.63 290.07 604.25 290.13 606.96 290.13H616.33C618.51 290.13 620.32 290 621.75 289.75C623.18 289.5 624.31 289.05 625.15 288.41C625.99 287.77 626.56 286.93 626.87 285.89C627.18 284.85 627.33 283.55 627.33 281.98C627.33 279.63 626.74 277.91 625.57 276.81C624.39 275.72 622.24 275.03 619.1 274.75L610.11 273.91C605.96 273.46 602.98 272.33 601.16 270.51C599.34 268.69 598.43 266.16 598.43 262.91V261.99C598.43 258.24 599.68 255.45 602.17 253.63C604.66 251.81 608.6 250.9 613.97 250.9H622.12C624.92 250.9 627.94 250.96 631.19 251.07L630.27 255.35C627.41 255.24 624.56 255.18 621.7 255.18H613.72C609.8 255.18 607.06 255.7 605.49 256.73C603.92 257.77 603.14 259.54 603.14 262.06C603.14 263.12 603.24 264.06 603.43 264.87C603.63 265.68 604 266.4 604.56 267.01C605.12 267.63 605.93 268.13 607 268.52C608.06 268.91 609.44 269.19 611.12 269.36L619.93 270.22ZM675.45 289.46C675.45 291.36 675.1 292.64 674.4 293.28C673.7 293.92 672.31 294.25 670.24 294.25H656.46C650.69 294.25 646.55 293.24 644.03 291.23C641.51 289.21 640.25 285.94 640.25 281.4V280.22C640.25 275.52 641.52 272.1 644.07 269.97C646.62 267.84 650.75 266.78 656.46 266.78C660.32 266.78 663.4 267.14 665.7 267.87C668 268.6 669.68 269.61 670.74 270.89V265.85C670.74 263.83 670.54 262.14 670.15 260.77C669.76 259.4 669.06 258.31 668.05 257.49C667.04 256.68 665.64 256.09 663.85 255.73C662.06 255.37 659.79 255.18 657.05 255.18C654.98 255.18 652.79 255.19 650.5 255.22C648.2 255.25 646.13 255.32 644.28 255.43L645.2 251.06C646.77 251 648.62 250.96 650.74 250.93C652.87 250.9 654.97 250.89 657.04 250.89C660.4 250.89 663.24 251.16 665.57 251.69C667.89 252.22 669.78 253.06 671.24 254.21C672.7 255.36 673.76 256.84 674.43 258.66C675.1 260.48 675.44 262.71 675.44 265.34V289.46H675.45ZM644.96 281.31C644.96 282.82 645.14 284.11 645.51 285.17C645.87 286.23 646.49 287.13 647.36 287.86C648.23 288.59 649.4 289.12 650.89 289.46C652.37 289.8 654.24 289.96 656.48 289.96H670.76V279.88C670.76 278.09 670.47 276.62 669.88 275.47C669.305 274.334 668.417 273.387 667.32 272.74C666.2 272.07 664.81 271.59 663.16 271.31C661.51 271.03 659.62 270.89 657.49 270.89H656.4C652.25 270.89 649.32 271.58 647.58 272.95C645.84 274.32 644.98 276.74 644.98 280.22V281.31H644.96ZM706.7 270.22C709.05 270.44 711 270.88 712.54 271.52C714.08 272.16 715.33 272.96 716.28 273.91C717.23 274.86 717.9 275.98 718.3 277.27C718.69 278.56 718.89 279.96 718.89 281.47V282.23C718.89 284.19 718.62 285.93 718.09 287.44C717.572 288.931 716.655 290.252 715.44 291.26C714.21 292.3 712.57 293.08 710.53 293.61C708.49 294.14 705.95 294.41 702.93 294.41H693.73C692.3 294.41 690.87 294.4 689.45 294.37C688.02 294.34 686.52 294.3 684.96 294.24L685.88 289.96C688.4 290.07 691.02 290.13 693.73 290.13H703.1C705.28 290.13 707.09 290 708.52 289.75C709.95 289.5 711.08 289.05 711.92 288.41C712.76 287.77 713.33 286.93 713.64 285.89C713.95 284.85 714.1 283.55 714.1 281.98C714.1 279.63 713.51 277.91 712.34 276.81C711.16 275.72 709.01 275.03 705.87 274.75L696.88 273.91C692.73 273.46 689.75 272.33 687.93 270.51C686.11 268.69 685.2 266.16 685.2 262.91V261.99C685.2 258.24 686.45 255.45 688.94 253.63C691.43 251.81 695.37 250.9 700.74 250.9H708.89C711.69 250.9 714.71 250.96 717.96 251.07L717.04 255.35C714.18 255.24 711.33 255.18 708.47 255.18H700.49C696.57 255.18 693.83 255.7 692.26 256.73C690.69 257.77 689.91 259.54 689.91 262.06C689.91 263.12 690.01 264.06 690.2 264.87C690.4 265.68 690.77 266.4 691.33 267.01C691.89 267.63 692.7 268.13 693.77 268.52C694.83 268.91 696.21 269.19 697.89 269.36L706.7 270.22Z" fill="#001E62"/>
</g>
<defs>
<clipPath id="clip0_1_2">
<rect width="760" height="309" fill="white"/>
</clipPath>
</defs>
</svg>
