<svg width="330" height="295" viewBox="0 0 330 295" fill="none" xmlns="http://www.w3.org/2000/svg">
<g clip-path="url(#clip0_2_9)">
<path d="M288.296 117.881C259.604 117.881 246.432 129.952 246.432 157.554V161.785C246.432 187.967 257.883 200.668 284.846 200.668C293.467 200.668 302.097 199.098 308.208 194.238V197.378C308.208 212.119 301.777 216.98 286.726 216.98H277.715C272.565 217.07 270.225 217.98 267.114 223.07L267.094 223.06C241.242 263.974 196.358 288.976 147.443 288.976C69.3963 288.976 5.90054 225.48 5.90054 147.433C5.90054 69.3863 69.3963 5.89053 147.443 5.89053C202.268 5.89053 252.133 37.6434 275.475 87.0479H281.976C258.193 34.1431 205.479 0 147.443 0C66.146 0 0 66.136 0 147.443C0 228.751 66.146 294.887 147.443 294.887C195.258 294.887 239.382 271.965 266.884 233.921H287.976C315.729 233.921 330 223.42 330 196.608V156.154C330 129.492 316.359 117.881 288.296 117.881ZM308.358 164.455C308.358 179.196 303.188 183.737 288.286 183.737C271.505 183.737 268.214 177.936 268.214 160.845V158.174C268.214 141.243 271.195 135.122 288.286 135.122C305.068 135.122 308.358 141.083 308.358 158.324V164.455ZM85.8678 88.248V165.235C85.8678 193.768 99.039 205.689 127.732 205.689C157.524 205.689 170.696 194.088 170.696 165.395V158.024C170.696 131.052 158.464 117.881 131.812 117.881C123.341 117.881 114.09 119.601 107.82 124.461V84.7877L85.8678 88.248ZM128.512 135.132C143.563 135.132 148.894 141.093 148.894 158.804V165.385C148.894 182.637 143.563 188.587 128.192 188.587C112.83 188.587 107.49 182.627 107.49 165.225V156.284C107.5 140.463 112.84 135.132 128.512 135.132ZM235.611 138.113L239.222 120.551H208.179V96.5588L186.387 99.8491V171.506C186.387 196.278 196.108 203.648 222.61 203.648H234.211L237.822 186.247H224.18C212.109 186.247 208.189 183.267 208.189 170.095V138.113H235.611Z" fill="#001E62"/>
</g>
<defs>
<clipPath id="clip0_2_9">
<rect width="330" height="295" fill="white"/>
</clipPath>
</defs>
</svg>
