<svg width="25" height="25" viewBox="0 0 25 25" fill="none" xmlns="http://www.w3.org/2000/svg">
<mask id="mask0_1_14" style="mask-type:alpha" maskUnits="userSpaceOnUse" x="0" y="0" width="25" height="25">
<rect x="0.79248" y="0.888645" width="24" height="24" fill="#D9D9D9"/>
</mask>
<g mask="url(#mask0_1_14)">
<path d="M12.7925 16.8886L7.79248 11.8886L9.19248 10.4386L11.7925 13.0386V4.88865H13.7925V13.0386L16.3925 10.4386L17.7925 11.8886L12.7925 16.8886ZM6.79248 20.8886C6.24248 20.8886 5.77165 20.6928 5.37998 20.3011C4.98831 19.9095 4.79248 19.4386 4.79248 18.8886V15.8886H6.79248V18.8886H18.7925V15.8886H20.7925V18.8886C20.7925 19.4386 20.5966 19.9095 20.205 20.3011C19.8133 20.6928 19.3425 20.8886 18.7925 20.8886H6.79248Z" fill="white"/>
</g>
</svg>
